<?xml version="1.0" encoding="UTF-8"?>
<svg xmlns="http://www.w3.org/2000/svg" viewBox="0 0 1280 320" role="img"
     aria-label="mcp-ltspice-qucs — RF filter synthesis, simulation, and coexistence analysis via LTspice, Qucs-S, ngspice, and Xyce">
  <title>mcp-ltspice-qucs</title>
  <defs>
    <linearGradient id="bbg" x1="0" y1="0" x2="0" y2="1">
      <stop offset="0%" stop-color="#0B1220"/><stop offset="100%" stop-color="#101B31"/>
    </linearGradient>
    <linearGradient id="bcv" x1="0" y1="0" x2="1" y2="0">
      <stop offset="0%" stop-color="#3AA1FF"/><stop offset="45%" stop-color="#3AA1FF"/>
      <stop offset="70%" stop-color="#5FD7C8"/><stop offset="100%" stop-color="#5FD7C8"/>
    </linearGradient>
  </defs>
  <rect x="0" y="0" width="1280" height="320" rx="0" fill="url(#bbg)"/>
<g><line x1="765.0" y1="52" x2="765.0" y2="268" stroke="#15213A" stroke-width="1"/><line x1="830.0" y1="52" x2="830.0" y2="268" stroke="#15213A" stroke-width="1"/><line x1="895.0" y1="52" x2="895.0" y2="268" stroke="#15213A" stroke-width="1"/><line x1="960.0" y1="52" x2="960.0" y2="268" stroke="#15213A" stroke-width="1"/><line x1="1025.0" y1="52" x2="1025.0" y2="268" stroke="#15213A" stroke-width="1"/><line x1="1090.0" y1="52" x2="1090.0" y2="268" stroke="#15213A" stroke-width="1"/><line x1="1155.0" y1="52" x2="1155.0" y2="268" stroke="#15213A" stroke-width="1"/><line x1="700" y1="106.0" x2="1220" y2="106.0" stroke="#15213A" stroke-width="1"/><line x1="700" y1="160.0" x2="1220" y2="160.0" stroke="#15213A" stroke-width="1"/><line x1="700" y1="214.0" x2="1220" y2="214.0" stroke="#15213A" stroke-width="1"/><line x1="1002.4" y1="58.0" x2="1002.4" y2="268.0" stroke="#5FD7C8" stroke-width="1" stroke-dasharray="2 4" opacity="0.55"/><line x1="1043.1" y1="58.0" x2="1043.1" y2="268.0" stroke="#5FD7C8" stroke-width="1" stroke-dasharray="2 4" opacity="0.55"/><rect x="700" y="52" width="520" height="216" fill="none" stroke="#1C2A47" stroke-width="1.5"/><path d="M700.0,139.8L701.1,139.6L702.2,139.3L703.3,139.1L704.3,138.8L705.4,138.5L706.5,138.3L707.6,138.0L708.7,137.8L709.8,137.5L710.9,137.3L711.9,137.0L713.0,136.8L714.1,136.5L715.2,136.3L716.3,136.0L717.4,135.8L718.5,135.5L719.5,135.3L720.6,135.0L721.7,134.8L722.8,134.5L723.9,134.3L725.0,134.0L726.1,133.8L727.1,133.5L728.2,133.3L729.3,133.0L730.4,132.8L731.5,132.5L732.6,132.3L733.7,132.1L734.7,131.8L735.8,131.6L736.9,131.3L738.0,131.1L739.1,130.8L740.2,130.6L741.3,130.4L742.3,130.1L743.4,129.9L744.5,129.6L745.6,129.4L746.7,129.2L747.8,128.9L748.9,128.7L749.9,128.4L751.0,128.2L752.1,128.0L753.2,127.7L754.3,127.5L755.4,127.3L756.5,127.0L757.5,126.8L758.6,126.6L759.7,126.3L760.8,126.1L761.9,125.9L763.0,125.6L764.1,125.4L765.1,125.2L766.2,124.9L767.3,124.7L768.4,124.5L769.5,124.3L770.6,124.0L771.6,123.8L772.7,123.6L773.8,123.4L774.9,123.2L776.0,122.9L777.1,122.7L778.2,122.5L779.2,122.3L780.3,122.1L781.4,121.9L782.5,121.6L783.6,121.4L784.7,121.2L785.8,121.0L786.8,120.8L787.9,120.6L789.0,120.4L790.1,120.2L791.2,120.0L792.3,119.8L793.4,119.6L794.4,119.4L795.5,119.2L796.6,119.0L797.7,118.8L798.8,118.6L799.9,118.4L801.0,118.2L802.0,118.0L803.1,117.9L804.2,117.7L805.3,117.5L806.4,117.3L807.5,117.1L808.6,117.0L809.6,116.8L810.7,116.6L811.8,116.4L812.9,116.3L814.0,116.1L815.1,116.0L816.2,115.8L817.2,115.6L818.3,115.5L819.4,115.3L820.5,115.2L821.6,115.0L822.7,114.9L823.8,114.7L824.8,114.6L825.9,114.5L827.0,114.3L828.1,114.2L829.2,114.1L830.3,114.0L831.4,113.8L832.4,113.7L833.5,113.6L834.6,113.5L835.7,113.4L836.8,113.3L837.9,113.2L839.0,113.1L840.0,113.0L841.1,113.0L842.2,112.9L843.3,112.8L844.4,112.7L845.5,112.7L846.6,112.6L847.6,112.6L848.7,112.5L849.8,112.5L850.9,112.4L852.0,112.4L853.1,112.4L854.2,112.4L855.2,112.4L856.3,112.4L857.4,112.4L858.5,112.4L859.6,112.4L860.7,112.5L861.8,112.5L862.8,112.6L863.9,112.6L865.0,112.7L866.1,112.8L867.2,112.9L868.3,113.0L869.4,113.1L870.4,113.3L871.5,113.4L872.6,113.6L873.7,113.8L874.8,113.9L875.9,114.2L877.0,114.4L878.0,114.6L879.1,114.9L880.2,115.2L881.3,115.5L882.4,115.8L883.5,116.2L884.6,116.6L885.6,117.0L886.7,117.4L887.8,117.9L888.9,118.4L890.0,119.0L891.1,119.6L892.2,120.2L893.2,120.9L894.3,121.6L895.4,122.4L896.5,123.3L897.6,124.2L898.7,125.2L899.7,126.3L900.8,127.5L901.9,128.8L903.0,130.2L904.1,131.7L905.2,133.5L906.3,135.4L907.3,137.6L908.4,140.0L909.5,142.8L910.6,146.1L911.7,149.9L912.8,154.6L913.9,160.6L914.9,168.7L916.0,181.0L917.1,206.9L918.2,212.1L919.3,182.0L920.4,168.5L921.5,159.5L922.5,152.9L923.6,147.6L924.7,143.1L925.8,139.3L926.9,136.0L928.0,133.1L929.1,130.4L930.1,128.1L931.2,125.9L932.3,124.0L933.4,122.2L934.5,120.6L935.6,119.2L936.7,117.9L937.7,116.7L938.8,115.7L939.9,114.8L941.0,114.0L942.1,113.4L943.2,112.9L944.3,112.6L945.3,112.4L946.4,112.5L947.5,112.7L948.6,113.3L949.7,114.1L950.8,115.4L951.9,117.2L952.9,119.7L954.0,123.2L955.1,128.3L956.2,136.4L957.3,151.5L958.4,238.5L959.5,149.0L960.5,129.1L961.6,116.8L962.7,107.7L963.8,100.5L964.9,94.5L966.0,89.5L967.1,85.4L968.1,81.9L969.2,79.2L970.3,76.9L971.4,75.2L972.5,73.8L973.6,72.7L974.7,71.9L975.7,71.3L976.8,70.9L977.9,70.5L979.0,70.3L980.1,70.1L981.2,69.9L982.3,69.8L983.3,69.8L984.4,69.7L985.5,69.6L986.6,69.6L987.7,69.6L988.8,69.6L989.9,69.5L990.9,69.5L992.0,69.5L993.1,69.5L994.2,69.5L995.3,69.5L996.4,69.5L997.5,69.5L998.5,69.5L999.6,69.5L1000.7,69.5L1001.8,69.5L1002.9,69.5L1004.0,69.5L1005.1,69.5L1006.1,69.5L1007.2,69.5L1008.3,69.5L1009.4,69.5L1010.5,69.5L1011.6,69.5L1012.7,69.5L1013.7,69.5L1014.8,69.5L1015.9,69.5L1017.0,69.5L1018.1,69.5L1019.2,69.5L1020.3,69.5L1021.3,69.5L1022.4,69.5L1023.5,69.5L1024.6,69.5L1025.7,69.5L1026.8,69.5L1027.8,69.5L1028.9,69.5L1030.0,69.5L1031.1,69.5L1032.2,69.5L1033.3,69.5L1034.4,69.5L1035.4,69.5L1036.5,69.5L1037.6,69.5L1038.7,69.5L1039.8,69.5L1040.9,69.5L1042.0,69.5L1043.0,69.5L1044.1,69.5L1045.2,69.5L1046.3,69.5L1047.4,69.5L1048.5,69.5L1049.6,69.5L1050.6,69.5L1051.7,69.5L1052.8,69.5L1053.9,69.5L1055.0,69.5L1056.1,69.5L1057.2,69.5L1058.2,69.5L1059.3,69.5L1060.4,69.5L1061.5,69.5L1062.6,69.5L1063.7,69.5L1064.8,69.5L1065.8,69.5L1066.9,69.5L1068.0,69.5L1069.1,69.5L1070.2,69.5L1071.3,69.5L1072.4,69.5L1073.4,69.5L1074.5,69.5L1075.6,69.5L1076.7,69.5L1077.8,69.5L1078.9,69.5L1080.0,69.5L1081.0,69.5L1082.1,69.5L1083.2,69.5L1084.3,69.5L1085.4,69.5L1086.5,69.5L1087.6,69.5L1088.6,69.5L1089.7,69.5L1090.8,69.5L1091.9,69.5L1093.0,69.5L1094.1,69.5L1095.2,69.5L1096.2,69.5L1097.3,69.5L1098.4,69.5L1099.5,69.5L1100.6,69.5L1101.7,69.5L1102.8,69.5L1103.8,69.5L1104.9,69.5L1106.0,69.5L1107.1,69.5L1108.2,69.5L1109.3,69.5L1110.4,69.5L1111.4,69.5L1112.5,69.5L1113.6,69.5L1114.7,69.5L1115.8,69.5L1116.9,69.5L1118.0,69.5L1119.0,69.5L1120.1,69.5L1121.2,69.5L1122.3,69.5L1123.4,69.5L1124.5,69.5L1125.6,69.5L1126.6,69.5L1127.7,69.5L1128.8,69.5L1129.9,69.5L1131.0,69.5L1132.1,69.5L1133.2,69.5L1134.2,69.5L1135.3,69.5L1136.4,69.5L1137.5,69.5L1138.6,69.5L1139.7,69.5L1140.8,69.5L1141.8,69.5L1142.9,69.5L1144.0,69.5L1145.1,69.5L1146.2,69.5L1147.3,69.5L1148.4,69.5L1149.4,69.5L1150.5,69.5L1151.6,69.5L1152.7,69.5L1153.8,69.5L1154.9,69.5L1155.9,69.5L1157.0,69.5L1158.1,69.5L1159.2,69.5L1160.3,69.5L1161.4,69.5L1162.5,69.5L1163.5,69.5L1164.6,69.5L1165.7,69.5L1166.8,69.5L1167.9,69.5L1169.0,69.5L1170.1,69.5L1171.1,69.5L1172.2,69.5L1173.3,69.5L1174.4,69.5L1175.5,69.5L1176.6,69.5L1177.7,69.5L1178.7,69.5L1179.8,69.5L1180.9,69.5L1182.0,69.5L1183.1,69.5L1184.2,69.5L1185.3,69.5L1186.3,69.5L1187.4,69.5L1188.5,69.5L1189.6,69.5L1190.7,69.5L1191.8,69.5L1192.9,69.5L1193.9,69.5L1195.0,69.5L1196.1,69.5L1197.2,69.5L1198.3,69.5L1199.4,69.5L1200.5,69.5L1201.5,69.5L1202.6,69.5L1203.7,69.5L1204.8,69.5L1205.9,69.5L1207.0,69.5L1208.1,69.5L1209.1,69.5L1210.2,69.5L1211.3,69.5L1212.4,69.5L1213.5,69.5L1214.6,69.5L1215.7,69.5L1216.7,69.5L1217.8,69.5L1218.9,69.5L1220.0,69.5" fill="none" stroke="#7286A8" stroke-width="1.6" opacity="0.45"/><path d="M700.0,69.6L701.1,69.6L702.2,69.6L703.3,69.6L704.3,69.6L705.4,69.6L706.5,69.6L707.6,69.6L708.7,69.6L709.8,69.6L710.9,69.6L711.9,69.6L713.0,69.6L714.1,69.6L715.2,69.6L716.3,69.6L717.4,69.6L718.5,69.6L719.5,69.6L720.6,69.6L721.7,69.6L722.8,69.6L723.9,69.6L725.0,69.6L726.1,69.6L727.1,69.6L728.2,69.6L729.3,69.6L730.4,69.6L731.5,69.6L732.6,69.6L733.7,69.6L734.7,69.6L735.8,69.6L736.9,69.6L738.0,69.6L739.1,69.6L740.2,69.6L741.3,69.6L742.3,69.6L743.4,69.6L744.5,69.6L745.6,69.6L746.7,69.6L747.8,69.6L748.9,69.6L749.9,69.6L751.0,69.6L752.1,69.6L753.2,69.6L754.3,69.6L755.4,69.6L756.5,69.7L757.5,69.7L758.6,69.7L759.7,69.7L760.8,69.7L761.9,69.7L763.0,69.7L764.1,69.7L765.1,69.7L766.2,69.7L767.3,69.7L768.4,69.7L769.5,69.7L770.6,69.7L771.6,69.7L772.7,69.7L773.8,69.7L774.9,69.7L776.0,69.7L777.1,69.7L778.2,69.7L779.2,69.7L780.3,69.7L781.4,69.7L782.5,69.7L783.6,69.7L784.7,69.7L785.8,69.7L786.8,69.7L787.9,69.7L789.0,69.7L790.1,69.7L791.2,69.8L792.3,69.8L793.4,69.8L794.4,69.8L795.5,69.8L796.6,69.8L797.7,69.8L798.8,69.8L799.9,69.8L801.0,69.8L802.0,69.8L803.1,69.8L804.2,69.8L805.3,69.8L806.4,69.8L807.5,69.8L808.6,69.8L809.6,69.8L810.7,69.8L811.8,69.8L812.9,69.8L814.0,69.8L815.1,69.8L816.2,69.8L817.2,69.9L818.3,69.9L819.4,69.9L820.5,69.9L821.6,69.9L822.7,69.9L823.8,69.9L824.8,69.9L825.9,69.9L827.0,69.9L828.1,69.9L829.2,69.9L830.3,69.9L831.4,69.9L832.4,69.9L833.5,69.9L834.6,69.9L835.7,69.9L836.8,69.9L837.9,69.9L839.0,69.9L840.0,69.9L841.1,69.9L842.2,69.9L843.3,69.9L844.4,69.9L845.5,69.9L846.6,69.9L847.6,69.9L848.7,69.9L849.8,69.9L850.9,69.9L852.0,70.0L853.1,70.0L854.2,70.0L855.2,70.0L856.3,70.0L857.4,70.0L858.5,70.0L859.6,69.9L860.7,69.9L861.8,69.9L862.8,69.9L863.9,69.9L865.0,69.9L866.1,69.9L867.2,69.9L868.3,69.9L869.4,69.9L870.4,69.9L871.5,69.9L872.6,69.9L873.7,69.9L874.8,69.9L875.9,69.9L877.0,69.9L878.0,69.9L879.1,69.9L880.2,69.9L881.3,69.9L882.4,69.8L883.5,69.8L884.6,69.8L885.6,69.8L886.7,69.8L887.8,69.8L888.9,69.8L890.0,69.8L891.1,69.8L892.2,69.7L893.2,69.7L894.3,69.7L895.4,69.7L896.5,69.7L897.6,69.7L898.7,69.7L899.7,69.7L900.8,69.6L901.9,69.6L903.0,69.6L904.1,69.6L905.2,69.6L906.3,69.6L907.3,69.6L908.4,69.6L909.5,69.6L910.6,69.5L911.7,69.5L912.8,69.5L913.9,69.5L914.9,69.5L916.0,69.5L917.1,69.5L918.2,69.5L919.3,69.5L920.4,69.5L921.5,69.5L922.5,69.5L923.6,69.5L924.7,69.6L925.8,69.6L926.9,69.6L928.0,69.6L929.1,69.6L930.1,69.6L931.2,69.7L932.3,69.7L933.4,69.7L934.5,69.7L935.6,69.8L936.7,69.8L937.7,69.8L938.8,69.9L939.9,69.9L941.0,69.9L942.1,69.9L943.2,69.9L944.3,69.9L945.3,70.0L946.4,69.9L947.5,69.9L948.6,69.9L949.7,69.9L950.8,69.9L951.9,69.8L952.9,69.8L954.0,69.7L955.1,69.6L956.2,69.6L957.3,69.5L958.4,69.5L959.5,69.5L960.5,69.6L961.6,69.8L962.7,70.2L963.8,70.7L964.9,71.4L966.0,72.4L967.1,73.8L968.1,75.5L969.2,77.5L970.3,79.8L971.4,82.5L972.5,85.3L973.6,88.4L974.7,91.6L975.7,95.0L976.8,98.4L977.9,101.9L979.0,105.4L980.1,109.0L981.2,112.7L982.3,116.4L983.3,120.1L984.4,123.9L985.5,127.8L986.6,131.7L987.7,135.7L988.8,139.9L989.9,144.1L990.9,148.6L992.0,153.3L993.1,158.2L994.2,163.4L995.3,169.1L996.4,175.4L997.5,182.5L998.5,190.8L999.6,201.2L1000.7,215.8L1001.8,243.7L1002.9,252.2L1004.0,224.0L1005.1,212.6L1006.1,206.0L1007.2,201.5L1008.3,198.4L1009.4,196.2L1010.5,194.6L1011.6,193.5L1012.7,192.7L1013.7,192.3L1014.8,192.1L1015.9,192.2L1017.0,192.4L1018.1,192.8L1019.2,193.3L1020.3,194.1L1021.3,194.9L1022.4,195.9L1023.5,197.0L1024.6,198.3L1025.7,199.6L1026.8,201.2L1027.8,202.9L1028.9,204.7L1030.0,206.8L1031.1,209.0L1032.2,211.5L1033.3,214.3L1034.4,217.3L1035.4,220.9L1036.5,224.9L1037.6,229.7L1038.7,235.5L1039.8,242.9L1040.9,253.2L1042.0,268.0L1043.0,268.0L1044.1,268.0L1045.2,255.5L1046.3,245.3L1047.4,238.2L1048.5,232.8L1049.6,228.5L1050.6,224.8L1051.7,221.8L1052.8,219.1L1053.9,216.8L1055.0,214.7L1056.1,212.8L1057.2,211.2L1058.2,209.6L1059.3,208.3L1060.4,207.0L1061.5,205.8L1062.6,204.8L1063.7,203.8L1064.8,202.9L1065.8,202.0L1066.9,201.3L1068.0,200.5L1069.1,199.9L1070.2,199.2L1071.3,198.6L1072.4,198.1L1073.4,197.6L1074.5,197.1L1075.6,196.7L1076.7,196.3L1077.8,195.9L1078.9,195.5L1080.0,195.2L1081.0,194.9L1082.1,194.6L1083.2,194.3L1084.3,194.1L1085.4,193.9L1086.5,193.6L1087.6,193.4L1088.6,193.3L1089.7,193.1L1090.8,193.0L1091.9,192.8L1093.0,192.7L1094.1,192.6L1095.2,192.5L1096.2,192.4L1097.3,192.3L1098.4,192.3L1099.5,192.2L1100.6,192.2L1101.7,192.2L1102.8,192.1L1103.8,192.1L1104.9,192.1L1106.0,192.1L1107.1,192.1L1108.2,192.1L1109.3,192.2L1110.4,192.2L1111.4,192.2L1112.5,192.3L1113.6,192.3L1114.7,192.4L1115.8,192.4L1116.9,192.5L1118.0,192.6L1119.0,192.6L1120.1,192.7L1121.2,192.8L1122.3,192.9L1123.4,193.0L1124.5,193.1L1125.6,193.2L1126.6,193.3L1127.7,193.4L1128.8,193.5L1129.9,193.7L1131.0,193.8L1132.1,193.9L1133.2,194.0L1134.2,194.2L1135.3,194.3L1136.4,194.5L1137.5,194.6L1138.6,194.7L1139.7,194.9L1140.8,195.1L1141.8,195.2L1142.9,195.4L1144.0,195.5L1145.1,195.7L1146.2,195.9L1147.3,196.0L1148.4,196.2L1149.4,196.4L1150.5,196.5L1151.6,196.7L1152.7,196.9L1153.8,197.1L1154.9,197.3L1155.9,197.4L1157.0,197.6L1158.1,197.8L1159.2,198.0L1160.3,198.2L1161.4,198.4L1162.5,198.6L1163.5,198.8L1164.6,199.0L1165.7,199.2L1166.8,199.4L1167.9,199.6L1169.0,199.8L1170.1,200.0L1171.1,200.2L1172.2,200.4L1173.3,200.6L1174.4,200.8L1175.5,201.0L1176.6,201.3L1177.7,201.5L1178.7,201.7L1179.8,201.9L1180.9,202.1L1182.0,202.3L1183.1,202.6L1184.2,202.8L1185.3,203.0L1186.3,203.2L1187.4,203.5L1188.5,203.7L1189.6,203.9L1190.7,204.1L1191.8,204.4L1192.9,204.6L1193.9,204.8L1195.0,205.0L1196.1,205.3L1197.2,205.5L1198.3,205.7L1199.4,206.0L1200.5,206.2L1201.5,206.4L1202.6,206.7L1203.7,206.9L1204.8,207.1L1205.9,207.4L1207.0,207.6L1208.1,207.9L1209.1,208.1L1210.2,208.3L1211.3,208.6L1212.4,208.8L1213.5,209.1L1214.6,209.3L1215.7,209.5L1216.7,209.8L1217.8,210.0L1218.9,210.3L1220.0,210.5" fill="none" stroke="url(#bcv)" stroke-width="3" stroke-linejoin="round" stroke-linecap="round"/></g>
  <text x="64" y="130" font-family="ui-monospace,'SF Mono','Cascadia Code',Menlo,Consolas,monospace" font-size="46" font-weight="700"
        fill="#E8EDF6" letter-spacing="0.5">mcp-ltspice-qucs</text>
  <text x="64" y="172" font-family="ui-monospace,'SF Mono','Cascadia Code',Menlo,Consolas,monospace" font-size="19" fill="#8FA1BE">RF filter synthesis, simulation, and coexistence</text>
  <text x="64" y="198" font-family="ui-monospace,'SF Mono','Cascadia Code',Menlo,Consolas,monospace" font-size="19" fill="#8FA1BE">analysis — LTspice · Qucs-S · ngspice · Xyce</text>
  <text x="64" y="252" font-family="ui-monospace,'SF Mono','Cascadia Code',Menlo,Consolas,monospace" font-size="14" fill="#3AA1FF">110 MCP tools · 4 simulator backends · validated against all of them</text>
</svg>
