<?xml version="1.0" encoding="UTF-8"?>
<svg xmlns="http://www.w3.org/2000/svg" viewBox="0 0 1280 320"
     role="img" aria-label="mcp-ltspice-qucs — RF filter + SMPS-EMC design via LTspice, Qucs-S, and scikit-rf">
  <title>mcp-ltspice-qucs — RF filter + SMPS-EMC design via LTspice, Qucs-S, and scikit-rf</title>

  <defs>
    <linearGradient id="t-bg" x1="0" y1="0" x2="1" y2="0">
      <stop offset="0%"   stop-color="#0B1220"/>
      <stop offset="50%"  stop-color="#0F172A"/>
      <stop offset="100%" stop-color="#0B1220"/>
    </linearGradient>
    <filter id="t-glow" x="-30%" y="-30%" width="160%" height="160%">
      <feGaussianBlur stdDeviation="1.4" result="blur"/>
      <feMerge>
        <feMergeNode in="blur"/>
        <feMergeNode in="SourceGraphic"/>
      </feMerge>
    </filter>
    <style>
      .accent        { color: #0EA5E9; }
      .accent-stroke { stroke: #0EA5E9; }
      .accent-fill   { fill:   #0EA5E9; }
    </style>
  </defs>

  <rect width="1280" height="320" fill="url(#t-bg)"/>

  <g stroke="#1E293B" stroke-width="0.5" opacity="0.6">
    <line x1="0" y1="40"  x2="1280" y2="40"/>
    <line x1="0" y1="80"  x2="1280" y2="80"/>
    <line x1="0" y1="240" x2="1280" y2="240"/>
    <line x1="0" y1="280" x2="1280" y2="280"/>
  </g>

  <g transform="translate(40, 40)">
    <rect x="0" y="0" width="240" height="240" rx="44" ry="44"
          fill="#0B1220" stroke="#1E293B" stroke-width="1"/>
    <rect x="12" y="12" width="216" height="216" rx="34" ry="34"
          fill="none" stroke="#1E293B" stroke-width="1" opacity="0.7"/>

    <!-- Glyph: g-schematic (resistor + cap + node + ground) -->
    <g transform="translate(40, 40)" filter="url(#t-glow)">
      <g fill="none" class="accent-stroke" stroke-width="2"
         stroke-linecap="round" stroke-linejoin="round">
        <line x1="16"  y1="56" x2="40"  y2="56"/>
        <path d="M 40 56 L 46 48 L 56 64 L 66 48 L 76 64 L 86 48 L 92 56"/>
        <line x1="92"  y1="56" x2="120" y2="56"/>
        <line x1="120" y1="40" x2="120" y2="72"/>
        <line x1="128" y1="40" x2="128" y2="72"/>
        <line x1="128" y1="56" x2="144" y2="56"/>
        <line x1="80" y1="80" x2="80" y2="104"/>
        <line x1="60" y1="104" x2="100" y2="104"/>
        <line x1="68" y1="112" x2="92" y2="112" stroke-opacity="0.7"/>
        <line x1="74" y1="120" x2="86" y2="120" stroke-opacity="0.5"/>
        <circle cx="80" cy="80" r="3" class="accent-fill" stroke="none"/>
        <line x1="80" y1="56" x2="80" y2="80" stroke-opacity="0.7"/>
      </g>
    </g>
  </g>

  <g font-family="ui-sans-serif, -apple-system, 'Segoe UI', Roboto, 'Helvetica Neue', sans-serif">
    <text x="320" y="170" font-size="78" font-weight="800"
          fill="#F8FAFC" letter-spacing="-2">mcp-ltspice-qucs</text>

    <g transform="translate(1100, 142)">
      <rect x="0" y="0" width="64" height="30" rx="15"
            fill="#0F172A" class="accent-stroke" stroke-width="1.5"/>
      <text x="32" y="20" font-size="14" font-weight="700"
            class="accent-fill" text-anchor="middle">v0.3.0</text>
    </g>

    <text x="320" y="208" font-size="22" font-weight="500" fill="#94A3B8">
      Open-source · MCP-enabled · RF filter + SMPS-EMC design
    </text>

    <g font-size="14" font-weight="600" fill="#64748B">
      <text x="320" y="240">LTspice · Qucs-S · scikit-rf · Butterworth · Chebyshev · Elliptic · CISPR · coexistence</text>
    </g>

    <g transform="translate(320, 256)" font-size="13" font-weight="700">
      <g transform="translate(0, 0)">
        <rect x="0" y="0" width="62" height="22" rx="11" fill="#1E293B"/>
        <text x="31" y="15" fill="#F59E0B" text-anchor="middle">Python</text>
      </g>
      <g transform="translate(72, 0)">
        <rect x="0" y="0" width="44" height="22" rx="11" fill="#1E293B"/>
        <text x="22" y="15" fill="#22D3EE" text-anchor="middle">CLI</text>
      </g>
      <g transform="translate(126, 0)">
        <rect x="0" y="0" width="50" height="22" rx="11" fill="#1E293B"/>
        <text x="25" y="15" fill="#A78BFA" text-anchor="middle">MCP</text>
      </g>
      <g transform="translate(186, 0)">
        <rect x="0" y="0" width="98" height="22" rx="11" fill="#1E293B"/>
        <text x="49" y="15" fill="#34D399" text-anchor="middle">Apache-2.0</text>
      </g>
    </g>
  </g>
</svg>
