<?xml version="1.0" encoding="utf-8" standalone="no"?>
<!DOCTYPE svg PUBLIC "-//W3C//DTD SVG 1.1//EN"
  "http://www.w3.org/Graphics/SVG/1.1/DTD/svg11.dtd">
<svg xmlns:xlink="http://www.w3.org/1999/xlink" width="563.364pt" height="177pt" viewBox="0 0 563.364 177" xmlns="http://www.w3.org/2000/svg" version="1.1">
 <metadata>
  <rdf:RDF xmlns:dc="http://purl.org/dc/elements/1.1/" xmlns:cc="http://creativecommons.org/ns#" xmlns:rdf="http://www.w3.org/1999/02/22-rdf-syntax-ns#">
   <cc:Work>
    <dc:type rdf:resource="http://purl.org/dc/dcmitype/StillImage"/>
    <dc:date>2026-04-22T22:28:14.954723</dc:date>
    <dc:format>image/svg+xml</dc:format>
    <dc:creator>
     <cc:Agent>
      <dc:title>Matplotlib v3.10.8, https://matplotlib.org/</dc:title>
     </cc:Agent>
    </dc:creator>
   </cc:Work>
  </rdf:RDF>
 </metadata>
 <defs>
  <style type="text/css">*{stroke-linejoin: round; stroke-linecap: butt}</style>
 </defs>
 <g id="figure_1">
  <g id="patch_1">
   <path d="M 0 177 
L 563.364 177 
L 563.364 0 
L 0 0 
L 0 177 
z
" style="fill: none"/>
  </g>
  <g id="axes_1">
   <g id="patch_2">
    <path d="M 22.68 113.28 
C 27.453656 113.28 32.032438 111.383406 35.407922 108.007922 
C 38.783406 104.632438 40.68 100.053656 40.68 95.28 
C 40.68 90.506344 38.783406 85.927562 35.407922 82.552078 
C 32.032438 79.176594 27.453656 77.28 22.68 77.28 
C 17.906344 77.28 13.327562 79.176594 9.952078 82.552078 
C 6.576594 85.927562 4.68 90.506344 4.68 95.28 
C 4.68 100.053656 6.576594 104.632438 9.952078 108.007922 
C 13.327562 111.383406 17.906344 113.28 22.68 113.28 
L 22.68 113.28 
z
" clip-path="url(#p323a6b8644)" style="fill: none; stroke: #000000; stroke-width: 2; stroke-linejoin: miter"/>
   </g>
   <g id="patch_3">
    <path d="M 175.68 41.28 
C 175.68 40.086984 175.205571 38.94161 174.361981 38.098019 
C 173.51839 37.254429 172.373016 36.78 171.18 36.78 
C 169.986984 36.78 168.84161 37.254429 167.998019 38.098019 
C 167.154429 38.94161 166.68 40.086984 166.68 41.28 
" clip-path="url(#p323a6b8644)" style="fill: none; stroke: #000000; stroke-width: 2; stroke-linejoin: miter"/>
   </g>
   <g id="patch_4">
    <path d="M 184.68 41.28 
C 184.68 40.086984 184.205571 38.94161 183.361981 38.098019 
C 182.51839 37.254429 181.373016 36.78 180.18 36.78 
C 178.986984 36.78 177.84161 37.254429 176.998019 38.098019 
C 176.154429 38.94161 175.68 40.086984 175.68 41.28 
" clip-path="url(#p323a6b8644)" style="fill: none; stroke: #000000; stroke-width: 2; stroke-linejoin: miter"/>
   </g>
   <g id="patch_5">
    <path d="M 193.68 41.28 
C 193.68 40.086984 193.205571 38.94161 192.361981 38.098019 
C 191.51839 37.254429 190.373016 36.78 189.18 36.78 
C 187.986984 36.78 186.84161 37.254429 185.998019 38.098019 
C 185.154429 38.94161 184.68 40.086984 184.68 41.28 
" clip-path="url(#p323a6b8644)" style="fill: none; stroke: #000000; stroke-width: 2; stroke-linejoin: miter"/>
   </g>
   <g id="patch_6">
    <path d="M 202.68 41.28 
C 202.68 40.086984 202.205571 38.94161 201.361981 38.098019 
C 200.51839 37.254429 199.373016 36.78 198.18 36.78 
C 196.986984 36.78 195.84161 37.254429 194.998019 38.098019 
C 194.154429 38.94161 193.68 40.086984 193.68 41.28 
" clip-path="url(#p323a6b8644)" style="fill: none; stroke: #000000; stroke-width: 2; stroke-linejoin: miter"/>
   </g>
   <g id="patch_7">
    <path d="M 319.68 41.28 
C 319.68 40.086984 319.205571 38.94161 318.361981 38.098019 
C 317.51839 37.254429 316.373016 36.78 315.18 36.78 
C 313.986984 36.78 312.84161 37.254429 311.998019 38.098019 
C 311.154429 38.94161 310.68 40.086984 310.68 41.28 
" clip-path="url(#p323a6b8644)" style="fill: none; stroke: #000000; stroke-width: 2; stroke-linejoin: miter"/>
   </g>
   <g id="patch_8">
    <path d="M 328.68 41.28 
C 328.68 40.086984 328.205571 38.94161 327.361981 38.098019 
C 326.51839 37.254429 325.373016 36.78 324.18 36.78 
C 322.986984 36.78 321.84161 37.254429 320.998019 38.098019 
C 320.154429 38.94161 319.68 40.086984 319.68 41.28 
" clip-path="url(#p323a6b8644)" style="fill: none; stroke: #000000; stroke-width: 2; stroke-linejoin: miter"/>
   </g>
   <g id="patch_9">
    <path d="M 337.68 41.28 
C 337.68 40.086984 337.205571 38.94161 336.361981 38.098019 
C 335.51839 37.254429 334.373016 36.78 333.18 36.78 
C 331.986984 36.78 330.84161 37.254429 329.998019 38.098019 
C 329.154429 38.94161 328.68 40.086984 328.68 41.28 
" clip-path="url(#p323a6b8644)" style="fill: none; stroke: #000000; stroke-width: 2; stroke-linejoin: miter"/>
   </g>
   <g id="patch_10">
    <path d="M 346.68 41.28 
C 346.68 40.086984 346.205571 38.94161 345.361981 38.098019 
C 344.51839 37.254429 343.373016 36.78 342.18 36.78 
C 340.986984 36.78 339.84161 37.254429 338.998019 38.098019 
C 338.154429 38.94161 337.68 40.086984 337.68 41.28 
" clip-path="url(#p323a6b8644)" style="fill: none; stroke: #000000; stroke-width: 2; stroke-linejoin: miter"/>
   </g>
   <g id="patch_11">
    <path d="M 463.68 41.28 
C 463.68 40.086984 463.205571 38.94161 462.361981 38.098019 
C 461.51839 37.254429 460.373016 36.78 459.18 36.78 
C 457.986984 36.78 456.84161 37.254429 455.998019 38.098019 
C 455.154429 38.94161 454.68 40.086984 454.68 41.28 
" clip-path="url(#p323a6b8644)" style="fill: none; stroke: #000000; stroke-width: 2; stroke-linejoin: miter"/>
   </g>
   <g id="patch_12">
    <path d="M 472.68 41.28 
C 472.68 40.086984 472.205571 38.94161 471.361981 38.098019 
C 470.51839 37.254429 469.373016 36.78 468.18 36.78 
C 466.986984 36.78 465.84161 37.254429 464.998019 38.098019 
C 464.154429 38.94161 463.68 40.086984 463.68 41.28 
" clip-path="url(#p323a6b8644)" style="fill: none; stroke: #000000; stroke-width: 2; stroke-linejoin: miter"/>
   </g>
   <g id="patch_13">
    <path d="M 481.68 41.28 
C 481.68 40.086984 481.205571 38.94161 480.361981 38.098019 
C 479.51839 37.254429 478.373016 36.78 477.18 36.78 
C 475.986984 36.78 474.84161 37.254429 473.998019 38.098019 
C 473.154429 38.94161 472.68 40.086984 472.68 41.28 
" clip-path="url(#p323a6b8644)" style="fill: none; stroke: #000000; stroke-width: 2; stroke-linejoin: miter"/>
   </g>
   <g id="patch_14">
    <path d="M 490.68 41.28 
C 490.68 40.086984 490.205571 38.94161 489.361981 38.098019 
C 488.51839 37.254429 487.373016 36.78 486.18 36.78 
C 484.986984 36.78 483.84161 37.254429 482.998019 38.098019 
C 482.154429 38.94161 481.68 40.086984 481.68 41.28 
" clip-path="url(#p323a6b8644)" style="fill: none; stroke: #000000; stroke-width: 2; stroke-linejoin: miter"/>
   </g>
   <g id="line2d_1">
    <path d="M 22.68 149.28 
L 22.68 113.28 
L 22.68 113.28 
M 22.68 77.28 
L 22.68 77.28 
L 22.68 41.28 
" clip-path="url(#p323a6b8644)" style="fill: none; stroke: #000000; stroke-width: 2; stroke-linecap: round"/>
   </g>
   <g id="line2d_2">
    <path d="M 31.68 95.28 
L 30.93 93.416503 
L 30.18 91.68 
L 29.43 90.188831 
L 28.68 89.044617 
L 27.93 88.325334 
L 27.18 88.08 
L 26.43 88.325334 
L 25.68 89.044617 
L 24.93 90.188831 
L 24.18 91.68 
L 23.43 93.416503 
L 22.68 95.28 
L 21.93 97.143497 
L 21.18 98.88 
L 20.43 100.371169 
L 19.68 101.515383 
L 18.93 102.234666 
L 18.18 102.48 
L 17.43 102.234666 
L 16.68 101.515383 
L 15.93 100.371169 
L 15.18 98.88 
L 14.43 97.143497 
L 13.68 95.28 
" clip-path="url(#p323a6b8644)" style="fill: none; stroke: #000000; stroke-width: 2; stroke-linecap: round"/>
   </g>
   <g id="line2d_3">
    <path d="M 22.68 41.28 
L 58.68 41.28 
L 61.68 32.28 
L 67.68 50.28 
L 73.68 32.28 
L 79.68 50.28 
L 85.68 32.28 
L 91.68 50.28 
L 94.68 41.28 
L 130.68 41.28 
" clip-path="url(#p323a6b8644)" style="fill: none; stroke: #000000; stroke-width: 2; stroke-linecap: round"/>
   </g>
   <g id="line2d_4">
    <path d="M 130.68 41.28 
L 166.68 41.28 
M 202.68 41.28 
L 238.68 41.28 
" clip-path="url(#p323a6b8644)" style="fill: none; stroke: #000000; stroke-width: 2; stroke-linecap: round"/>
   </g>
   <g id="line2d_5">
    <path d="M 238.68 41.28 
L 238.68 92.04 
M 247.68 92.04 
L 229.68 92.04 
M 247.68 98.52 
L 229.68 98.52 
M 238.68 98.52 
L 238.68 149.28 
" clip-path="url(#p323a6b8644)" style="fill: none; stroke: #000000; stroke-width: 2; stroke-linecap: round"/>
   </g>
   <g id="line2d_6">
    <path d="M 238.68 149.28 
L 238.68 163.68 
L 229.68 163.68 
L 247.68 163.68 
M 232.38 168 
L 244.98 168 
M 236.88 172.32 
L 240.48 172.32 
" clip-path="url(#p323a6b8644)" style="fill: none; stroke: #000000; stroke-width: 2; stroke-linecap: round"/>
   </g>
   <g id="line2d_7">
    <path d="M 238.68 41.28 
L 256.68 41.28 
L 274.68 41.28 
" clip-path="url(#p323a6b8644)" style="fill: none; stroke: #000000; stroke-width: 2; stroke-linecap: round"/>
   </g>
   <g id="line2d_8">
    <path d="M 274.68 41.28 
L 310.68 41.28 
M 346.68 41.28 
L 382.68 41.28 
" clip-path="url(#p323a6b8644)" style="fill: none; stroke: #000000; stroke-width: 2; stroke-linecap: round"/>
   </g>
   <g id="line2d_9">
    <path d="M 382.68 41.28 
L 382.68 92.04 
M 391.68 92.04 
L 373.68 92.04 
M 391.68 98.52 
L 373.68 98.52 
M 382.68 98.52 
L 382.68 149.28 
" clip-path="url(#p323a6b8644)" style="fill: none; stroke: #000000; stroke-width: 2; stroke-linecap: round"/>
   </g>
   <g id="line2d_10">
    <path d="M 382.68 149.28 
L 382.68 163.68 
L 373.68 163.68 
L 391.68 163.68 
M 376.38 168 
L 388.98 168 
M 380.88 172.32 
L 384.48 172.32 
" clip-path="url(#p323a6b8644)" style="fill: none; stroke: #000000; stroke-width: 2; stroke-linecap: round"/>
   </g>
   <g id="line2d_11">
    <path d="M 382.68 41.28 
L 400.68 41.28 
L 418.68 41.28 
" clip-path="url(#p323a6b8644)" style="fill: none; stroke: #000000; stroke-width: 2; stroke-linecap: round"/>
   </g>
   <g id="line2d_12">
    <path d="M 418.68 41.28 
L 454.68 41.28 
M 490.68 41.28 
L 526.68 41.28 
" clip-path="url(#p323a6b8644)" style="fill: none; stroke: #000000; stroke-width: 2; stroke-linecap: round"/>
   </g>
   <g id="line2d_13">
    <path d="M 526.68 41.28 
L 535.68 41.28 
L 544.68 41.28 
" clip-path="url(#p323a6b8644)" style="fill: none; stroke: #000000; stroke-width: 2; stroke-linecap: round"/>
   </g>
   <g id="line2d_14">
    <path d="M 544.68 41.28 
L 544.68 77.28 
L 553.68 80.28 
L 535.68 86.28 
L 553.68 92.28 
L 535.68 98.28 
L 553.68 104.28 
L 535.68 110.28 
L 544.68 113.28 
L 544.68 149.28 
" clip-path="url(#p323a6b8644)" style="fill: none; stroke: #000000; stroke-width: 2; stroke-linecap: round"/>
   </g>
   <g id="line2d_15">
    <path d="M 544.68 149.28 
L 544.68 163.68 
L 535.68 163.68 
L 553.68 163.68 
M 538.38 168 
L 550.98 168 
M 542.88 172.32 
L 546.48 172.32 
" clip-path="url(#p323a6b8644)" style="fill: none; stroke: #000000; stroke-width: 2; stroke-linecap: round"/>
   </g>
   <g id="line2d_16">
    <path d="M 22.68 41.28 
" clip-path="url(#p323a6b8644)" style="fill: none; stroke: #000000; stroke-width: 2; stroke-linecap: round"/>
   </g>
   <g id="text_1">
    <!-- V$_{in}$ -->
    <g transform="translate(14.52 161.998125) scale(0.12 -0.12)">
     <defs>
      <path id="DejaVuSans-56" d="M 1831 0 
L 50 4666 
L 709 4666 
L 2188 738 
L 3669 4666 
L 4325 4666 
L 2547 0 
L 1831 0 
z
" transform="scale(0.015625)"/>
      <path id="DejaVuSans-Oblique-69" d="M 1172 4863 
L 1747 4863 
L 1606 4134 
L 1031 4134 
L 1172 4863 
z
M 909 3500 
L 1484 3500 
L 800 0 
L 225 0 
L 909 3500 
z
" transform="scale(0.015625)"/>
      <path id="DejaVuSans-Oblique-6e" d="M 3566 2113 
L 3156 0 
L 2578 0 
L 2988 2091 
Q 3016 2238 3031 2350 
Q 3047 2463 3047 2528 
Q 3047 2791 2881 2937 
Q 2716 3084 2419 3084 
Q 1956 3084 1622 2776 
Q 1288 2469 1184 1941 
L 800 0 
L 225 0 
L 903 3500 
L 1478 3500 
L 1363 2950 
Q 1603 3253 1940 3418 
Q 2278 3584 2650 3584 
Q 3113 3584 3367 3334 
Q 3622 3084 3622 2631 
Q 3622 2519 3608 2391 
Q 3594 2263 3566 2113 
z
" transform="scale(0.015625)"/>
     </defs>
     <use xlink:href="#DejaVuSans-56" transform="translate(0 0.09375)"/>
     <use xlink:href="#DejaVuSans-Oblique-69" transform="translate(69.365234 -16.3125) scale(0.7)"/>
     <use xlink:href="#DejaVuSans-Oblique-6e" transform="translate(88.813477 -16.3125) scale(0.7)"/>
    </g>
   </g>
   <g id="text_2">
    <!-- R$_S$ -->
    <g transform="translate(69.6 14.570625) scale(0.12 -0.12)">
     <defs>
      <path id="DejaVuSans-52" d="M 2841 2188 
Q 3044 2119 3236 1894 
Q 3428 1669 3622 1275 
L 4263 0 
L 3584 0 
L 2988 1197 
Q 2756 1666 2539 1819 
Q 2322 1972 1947 1972 
L 1259 1972 
L 1259 0 
L 628 0 
L 628 4666 
L 2053 4666 
Q 2853 4666 3247 4331 
Q 3641 3997 3641 3322 
Q 3641 2881 3436 2590 
Q 3231 2300 2841 2188 
z
M 1259 4147 
L 1259 2491 
L 2053 2491 
Q 2509 2491 2742 2702 
Q 2975 2913 2975 3322 
Q 2975 3731 2742 3939 
Q 2509 4147 2053 4147 
L 1259 4147 
z
" transform="scale(0.015625)"/>
      <path id="DejaVuSans-Oblique-53" d="M 3859 4513 
L 3738 3897 
Q 3422 4066 3111 4152 
Q 2800 4238 2509 4238 
Q 1944 4238 1609 3991 
Q 1275 3744 1275 3334 
Q 1275 3109 1398 2989 
Q 1522 2869 2034 2731 
L 2413 2638 
Q 3053 2472 3303 2217 
Q 3553 1963 3553 1503 
Q 3553 797 2998 353 
Q 2444 -91 1538 -91 
Q 1166 -91 791 -17 
Q 416 56 38 206 
L 166 856 
Q 513 641 861 531 
Q 1209 422 1556 422 
Q 2147 422 2503 684 
Q 2859 947 2859 1369 
Q 2859 1650 2717 1795 
Q 2575 1941 2106 2059 
L 1728 2156 
Q 1081 2325 845 2545 
Q 609 2766 609 3163 
Q 609 3859 1145 4304 
Q 1681 4750 2541 4750 
Q 2875 4750 3203 4690 
Q 3531 4631 3859 4513 
z
" transform="scale(0.015625)"/>
     </defs>
     <use xlink:href="#DejaVuSans-52" transform="translate(0 0.09375)"/>
     <use xlink:href="#DejaVuSans-Oblique-53" transform="translate(70.439453 -16.3125) scale(0.7)"/>
    </g>
    <!-- 50Ω -->
    <g transform="translate(64.459687 26.184375) scale(0.12 -0.12)">
     <defs>
      <path id="DejaVuSans-35" d="M 691 4666 
L 3169 4666 
L 3169 4134 
L 1269 4134 
L 1269 2991 
Q 1406 3038 1543 3061 
Q 1681 3084 1819 3084 
Q 2600 3084 3056 2656 
Q 3513 2228 3513 1497 
Q 3513 744 3044 326 
Q 2575 -91 1722 -91 
Q 1428 -91 1123 -41 
Q 819 9 494 109 
L 494 744 
Q 775 591 1075 516 
Q 1375 441 1709 441 
Q 2250 441 2565 725 
Q 2881 1009 2881 1497 
Q 2881 1984 2565 2268 
Q 2250 2553 1709 2553 
Q 1456 2553 1204 2497 
Q 953 2441 691 2322 
L 691 4666 
z
" transform="scale(0.015625)"/>
      <path id="DejaVuSans-30" d="M 2034 4250 
Q 1547 4250 1301 3770 
Q 1056 3291 1056 2328 
Q 1056 1369 1301 889 
Q 1547 409 2034 409 
Q 2525 409 2770 889 
Q 3016 1369 3016 2328 
Q 3016 3291 2770 3770 
Q 2525 4250 2034 4250 
z
M 2034 4750 
Q 2819 4750 3233 4129 
Q 3647 3509 3647 2328 
Q 3647 1150 3233 529 
Q 2819 -91 2034 -91 
Q 1250 -91 836 529 
Q 422 1150 422 2328 
Q 422 3509 836 4129 
Q 1250 4750 2034 4750 
z
" transform="scale(0.015625)"/>
      <path id="DejaVuSans-3a9" d="M 4647 556 
L 4647 0 
L 2772 0 
L 2772 556 
Q 3325 859 3634 1378 
Q 3944 1897 3944 2528 
Q 3944 3278 3531 3731 
Q 3119 4184 2444 4184 
Q 1769 4184 1355 3729 
Q 941 3275 941 2528 
Q 941 1897 1250 1378 
Q 1563 859 2119 556 
L 2119 0 
L 244 0 
L 244 556 
L 1241 556 
Q 747 991 519 1456 
Q 294 1922 294 2497 
Q 294 3491 894 4106 
Q 1491 4722 2444 4722 
Q 3391 4722 3994 4106 
Q 4594 3494 4594 2528 
Q 4594 1922 4372 1459 
Q 4150 997 3647 556 
L 4647 556 
z
" transform="scale(0.015625)"/>
     </defs>
     <use xlink:href="#DejaVuSans-35"/>
     <use xlink:href="#DejaVuSans-30" transform="translate(63.623047 0)"/>
     <use xlink:href="#DejaVuSans-3a9" transform="translate(127.246094 0)"/>
    </g>
   </g>
   <g id="text_3">
    <!-- L1 -->
    <g transform="translate(177.519375 19.070647) scale(0.12 -0.12)">
     <defs>
      <path id="DejaVuSans-4c" d="M 628 4666 
L 1259 4666 
L 1259 531 
L 3531 531 
L 3531 0 
L 628 0 
L 628 4666 
z
" transform="scale(0.015625)"/>
      <path id="DejaVuSans-31" d="M 794 531 
L 1825 531 
L 1825 4091 
L 703 3866 
L 703 4441 
L 1819 4666 
L 2450 4666 
L 2450 531 
L 3481 531 
L 3481 0 
L 794 0 
L 794 531 
z
" transform="scale(0.015625)"/>
     </defs>
     <use xlink:href="#DejaVuSans-4c"/>
     <use xlink:href="#DejaVuSans-31" transform="translate(55.712891 0)"/>
    </g>
    <!-- 4.7nH -->
    <g transform="translate(166.823437 30.684397) scale(0.12 -0.12)">
     <defs>
      <path id="DejaVuSans-34" d="M 2419 4116 
L 825 1625 
L 2419 1625 
L 2419 4116 
z
M 2253 4666 
L 3047 4666 
L 3047 1625 
L 3713 1625 
L 3713 1100 
L 3047 1100 
L 3047 0 
L 2419 0 
L 2419 1100 
L 313 1100 
L 313 1709 
L 2253 4666 
z
" transform="scale(0.015625)"/>
      <path id="DejaVuSans-2e" d="M 684 794 
L 1344 794 
L 1344 0 
L 684 0 
L 684 794 
z
" transform="scale(0.015625)"/>
      <path id="DejaVuSans-37" d="M 525 4666 
L 3525 4666 
L 3525 4397 
L 1831 0 
L 1172 0 
L 2766 4134 
L 525 4134 
L 525 4666 
z
" transform="scale(0.015625)"/>
      <path id="DejaVuSans-6e" d="M 3513 2113 
L 3513 0 
L 2938 0 
L 2938 2094 
Q 2938 2591 2744 2837 
Q 2550 3084 2163 3084 
Q 1697 3084 1428 2787 
Q 1159 2491 1159 1978 
L 1159 0 
L 581 0 
L 581 3500 
L 1159 3500 
L 1159 2956 
Q 1366 3272 1645 3428 
Q 1925 3584 2291 3584 
Q 2894 3584 3203 3211 
Q 3513 2838 3513 2113 
z
" transform="scale(0.015625)"/>
      <path id="DejaVuSans-48" d="M 628 4666 
L 1259 4666 
L 1259 2753 
L 3553 2753 
L 3553 4666 
L 4184 4666 
L 4184 0 
L 3553 0 
L 3553 2222 
L 1259 2222 
L 1259 0 
L 628 0 
L 628 4666 
z
" transform="scale(0.015625)"/>
     </defs>
     <use xlink:href="#DejaVuSans-34"/>
     <use xlink:href="#DejaVuSans-2e" transform="translate(63.623047 0)"/>
     <use xlink:href="#DejaVuSans-37" transform="translate(95.410156 0)"/>
     <use xlink:href="#DejaVuSans-6e" transform="translate(159.033203 0)"/>
     <use xlink:href="#DejaVuSans-48" transform="translate(222.412109 0)"/>
    </g>
   </g>
   <g id="text_4">
    <!-- C2 -->
    <g transform="translate(230.672812 23.570625) scale(0.12 -0.12)">
     <defs>
      <path id="DejaVuSans-43" d="M 4122 4306 
L 4122 3641 
Q 3803 3938 3442 4084 
Q 3081 4231 2675 4231 
Q 1875 4231 1450 3742 
Q 1025 3253 1025 2328 
Q 1025 1406 1450 917 
Q 1875 428 2675 428 
Q 3081 428 3442 575 
Q 3803 722 4122 1019 
L 4122 359 
Q 3791 134 3420 21 
Q 3050 -91 2638 -91 
Q 1578 -91 968 557 
Q 359 1206 359 2328 
Q 359 3453 968 4101 
Q 1578 4750 2638 4750 
Q 3056 4750 3426 4639 
Q 3797 4528 4122 4306 
z
" transform="scale(0.015625)"/>
      <path id="DejaVuSans-32" d="M 1228 531 
L 3431 531 
L 3431 0 
L 469 0 
L 469 531 
Q 828 903 1448 1529 
Q 2069 2156 2228 2338 
Q 2531 2678 2651 2914 
Q 2772 3150 2772 3378 
Q 2772 3750 2511 3984 
Q 2250 4219 1831 4219 
Q 1534 4219 1204 4116 
Q 875 4013 500 3803 
L 500 4441 
Q 881 4594 1212 4672 
Q 1544 4750 1819 4750 
Q 2544 4750 2975 4387 
Q 3406 4025 3406 3419 
Q 3406 3131 3298 2873 
Q 3191 2616 2906 2266 
Q 2828 2175 2409 1742 
Q 1991 1309 1228 531 
z
" transform="scale(0.015625)"/>
     </defs>
     <use xlink:href="#DejaVuSans-43"/>
     <use xlink:href="#DejaVuSans-32" transform="translate(69.824219 0)"/>
    </g>
    <!-- 5.6pF -->
    <g transform="translate(221.878125 35.184375) scale(0.12 -0.12)">
     <defs>
      <path id="DejaVuSans-36" d="M 2113 2584 
Q 1688 2584 1439 2293 
Q 1191 2003 1191 1497 
Q 1191 994 1439 701 
Q 1688 409 2113 409 
Q 2538 409 2786 701 
Q 3034 994 3034 1497 
Q 3034 2003 2786 2293 
Q 2538 2584 2113 2584 
z
M 3366 4563 
L 3366 3988 
Q 3128 4100 2886 4159 
Q 2644 4219 2406 4219 
Q 1781 4219 1451 3797 
Q 1122 3375 1075 2522 
Q 1259 2794 1537 2939 
Q 1816 3084 2150 3084 
Q 2853 3084 3261 2657 
Q 3669 2231 3669 1497 
Q 3669 778 3244 343 
Q 2819 -91 2113 -91 
Q 1303 -91 875 529 
Q 447 1150 447 2328 
Q 447 3434 972 4092 
Q 1497 4750 2381 4750 
Q 2619 4750 2861 4703 
Q 3103 4656 3366 4563 
z
" transform="scale(0.015625)"/>
      <path id="DejaVuSans-70" d="M 1159 525 
L 1159 -1331 
L 581 -1331 
L 581 3500 
L 1159 3500 
L 1159 2969 
Q 1341 3281 1617 3432 
Q 1894 3584 2278 3584 
Q 2916 3584 3314 3078 
Q 3713 2572 3713 1747 
Q 3713 922 3314 415 
Q 2916 -91 2278 -91 
Q 1894 -91 1617 61 
Q 1341 213 1159 525 
z
M 3116 1747 
Q 3116 2381 2855 2742 
Q 2594 3103 2138 3103 
Q 1681 3103 1420 2742 
Q 1159 2381 1159 1747 
Q 1159 1113 1420 752 
Q 1681 391 2138 391 
Q 2594 391 2855 752 
Q 3116 1113 3116 1747 
z
" transform="scale(0.015625)"/>
      <path id="DejaVuSans-46" d="M 628 4666 
L 3309 4666 
L 3309 4134 
L 1259 4134 
L 1259 2759 
L 3109 2759 
L 3109 2228 
L 1259 2228 
L 1259 0 
L 628 0 
L 628 4666 
z
" transform="scale(0.015625)"/>
     </defs>
     <use xlink:href="#DejaVuSans-35"/>
     <use xlink:href="#DejaVuSans-2e" transform="translate(63.623047 0)"/>
     <use xlink:href="#DejaVuSans-36" transform="translate(95.410156 0)"/>
     <use xlink:href="#DejaVuSans-70" transform="translate(159.033203 0)"/>
     <use xlink:href="#DejaVuSans-46" transform="translate(222.509766 0)"/>
    </g>
   </g>
   <g id="text_5">
    <!-- L3 -->
    <g transform="translate(321.519375 19.070647) scale(0.12 -0.12)">
     <defs>
      <path id="DejaVuSans-33" d="M 2597 2516 
Q 3050 2419 3304 2112 
Q 3559 1806 3559 1356 
Q 3559 666 3084 287 
Q 2609 -91 1734 -91 
Q 1441 -91 1130 -33 
Q 819 25 488 141 
L 488 750 
Q 750 597 1062 519 
Q 1375 441 1716 441 
Q 2309 441 2620 675 
Q 2931 909 2931 1356 
Q 2931 1769 2642 2001 
Q 2353 2234 1838 2234 
L 1294 2234 
L 1294 2753 
L 1863 2753 
Q 2328 2753 2575 2939 
Q 2822 3125 2822 3475 
Q 2822 3834 2567 4026 
Q 2313 4219 1838 4219 
Q 1578 4219 1281 4162 
Q 984 4106 628 3988 
L 628 4550 
Q 988 4650 1302 4700 
Q 1616 4750 1894 4750 
Q 2613 4750 3031 4423 
Q 3450 4097 3450 3541 
Q 3450 3153 3228 2886 
Q 3006 2619 2597 2516 
z
" transform="scale(0.015625)"/>
     </defs>
     <use xlink:href="#DejaVuSans-4c"/>
     <use xlink:href="#DejaVuSans-33" transform="translate(55.712891 0)"/>
    </g>
    <!-- 15nH -->
    <g transform="translate(312.730312 30.684397) scale(0.12 -0.12)">
     <use xlink:href="#DejaVuSans-31"/>
     <use xlink:href="#DejaVuSans-35" transform="translate(63.623047 0)"/>
     <use xlink:href="#DejaVuSans-6e" transform="translate(127.246094 0)"/>
     <use xlink:href="#DejaVuSans-48" transform="translate(190.625 0)"/>
    </g>
   </g>
   <g id="text_6">
    <!-- C4 -->
    <g transform="translate(374.672812 23.570625) scale(0.12 -0.12)">
     <use xlink:href="#DejaVuSans-43"/>
     <use xlink:href="#DejaVuSans-34" transform="translate(69.824219 0)"/>
    </g>
    <!-- 5.6pF -->
    <g transform="translate(365.878125 35.184375) scale(0.12 -0.12)">
     <use xlink:href="#DejaVuSans-35"/>
     <use xlink:href="#DejaVuSans-2e" transform="translate(63.623047 0)"/>
     <use xlink:href="#DejaVuSans-36" transform="translate(95.410156 0)"/>
     <use xlink:href="#DejaVuSans-70" transform="translate(159.033203 0)"/>
     <use xlink:href="#DejaVuSans-46" transform="translate(222.509766 0)"/>
    </g>
   </g>
   <g id="text_7">
    <!-- L5 -->
    <g transform="translate(465.519375 19.070647) scale(0.12 -0.12)">
     <use xlink:href="#DejaVuSans-4c"/>
     <use xlink:href="#DejaVuSans-35" transform="translate(55.712891 0)"/>
    </g>
    <!-- 4.7nH -->
    <g transform="translate(454.823437 30.684397) scale(0.12 -0.12)">
     <use xlink:href="#DejaVuSans-34"/>
     <use xlink:href="#DejaVuSans-2e" transform="translate(63.623047 0)"/>
     <use xlink:href="#DejaVuSans-37" transform="translate(95.410156 0)"/>
     <use xlink:href="#DejaVuSans-6e" transform="translate(159.033203 0)"/>
     <use xlink:href="#DejaVuSans-48" transform="translate(222.412109 0)"/>
    </g>
   </g>
   <g id="text_8">
    <!-- R$_L$ -->
    <g transform="translate(537.9 23.570625) scale(0.12 -0.12)">
     <defs>
      <path id="DejaVuSans-Oblique-4c" d="M 1075 4666 
L 1709 4666 
L 909 525 
L 3181 525 
L 3078 0 
L 172 0 
L 1075 4666 
z
" transform="scale(0.015625)"/>
     </defs>
     <use xlink:href="#DejaVuSans-52" transform="translate(0 0.09375)"/>
     <use xlink:href="#DejaVuSans-Oblique-4c" transform="translate(70.439453 -16.3125) scale(0.7)"/>
    </g>
    <!-- 50Ω -->
    <g transform="translate(532.459687 35.184375) scale(0.12 -0.12)">
     <use xlink:href="#DejaVuSans-35"/>
     <use xlink:href="#DejaVuSans-30" transform="translate(63.623047 0)"/>
     <use xlink:href="#DejaVuSans-3a9" transform="translate(127.246094 0)"/>
    </g>
   </g>
   <g id="patch_15">
    <path d="M 544.68 43.98 
C 545.396048 43.98 546.082866 43.695511 546.589188 43.189188 
C 547.095511 42.682866 547.38 41.996048 547.38 41.28 
C 547.38 40.563952 547.095511 39.877134 546.589188 39.370812 
C 546.082866 38.864489 545.396048 38.58 544.68 38.58 
C 543.963952 38.58 543.277134 38.864489 542.770812 39.370812 
C 542.264489 39.877134 541.98 40.563952 541.98 41.28 
C 541.98 41.996048 542.264489 42.682866 542.770812 43.189188 
C 543.277134 43.695511 543.963952 43.98 544.68 43.98 
z
" clip-path="url(#p323a6b8644)" style="stroke: #000000; stroke-width: 2; stroke-linejoin: miter"/>
   </g>
   <g id="text_9">
    <!-- V$_{out}$ -->
    <g transform="translate(533.46 32.484375) scale(0.12 -0.12)">
     <defs>
      <path id="DejaVuSans-Oblique-6f" d="M 1625 -91 
Q 1009 -91 651 289 
Q 294 669 294 1325 
Q 294 1706 417 2101 
Q 541 2497 738 2766 
Q 1047 3184 1428 3384 
Q 1809 3584 2291 3584 
Q 2888 3584 3255 3212 
Q 3622 2841 3622 2241 
Q 3622 1825 3500 1412 
Q 3378 1000 3181 728 
Q 2875 309 2494 109 
Q 2113 -91 1625 -91 
z
M 891 1344 
Q 891 869 1089 633 
Q 1288 397 1691 397 
Q 2269 397 2648 901 
Q 3028 1406 3028 2181 
Q 3028 2634 2825 2865 
Q 2622 3097 2228 3097 
Q 1903 3097 1650 2945 
Q 1397 2794 1197 2484 
Q 1050 2253 970 1956 
Q 891 1659 891 1344 
z
" transform="scale(0.015625)"/>
      <path id="DejaVuSans-Oblique-75" d="M 428 1388 
L 838 3500 
L 1416 3500 
L 1006 1409 
Q 975 1256 961 1147 
Q 947 1038 947 966 
Q 947 700 1109 554 
Q 1272 409 1569 409 
Q 2031 409 2368 721 
Q 2706 1034 2809 1563 
L 3194 3500 
L 3769 3500 
L 3091 0 
L 2516 0 
L 2631 550 
Q 2388 244 2052 76 
Q 1716 -91 1338 -91 
Q 878 -91 622 161 
Q 366 413 366 863 
Q 366 956 381 1097 
Q 397 1238 428 1388 
z
" transform="scale(0.015625)"/>
      <path id="DejaVuSans-Oblique-74" d="M 2706 3500 
L 2619 3053 
L 1472 3053 
L 1100 1153 
Q 1081 1047 1072 975 
Q 1063 903 1063 863 
Q 1063 663 1183 572 
Q 1303 481 1569 481 
L 2150 481 
L 2053 0 
L 1503 0 
Q 991 0 739 200 
Q 488 400 488 806 
Q 488 878 497 964 
Q 506 1050 525 1153 
L 897 3053 
L 409 3053 
L 500 3500 
L 978 3500 
L 1172 4494 
L 1747 4494 
L 1556 3500 
L 2706 3500 
z
" transform="scale(0.015625)"/>
     </defs>
     <use xlink:href="#DejaVuSans-56" transform="translate(0 0.09375)"/>
     <use xlink:href="#DejaVuSans-Oblique-6f" transform="translate(69.365234 -16.3125) scale(0.7)"/>
     <use xlink:href="#DejaVuSans-Oblique-75" transform="translate(112.192383 -16.3125) scale(0.7)"/>
     <use xlink:href="#DejaVuSans-Oblique-74" transform="translate(156.557617 -16.3125) scale(0.7)"/>
    </g>
   </g>
  </g>
 </g>
 <defs>
  <clipPath id="p323a6b8644">
   <rect x="0" y="-0" width="563.364" height="177"/>
  </clipPath>
 </defs>
</svg>
