<?xml version="1.0" encoding="UTF-8"?>
<svg xmlns="http://www.w3.org/2000/svg" viewBox="0 0 128 128" role="img"
     aria-label="mcp-ltspice-qucs mark: elliptic low-pass response with transmission-zero notches">
  <title>mcp-ltspice-qucs</title>
  <defs>
    <linearGradient id="mbg" x1="0" y1="0" x2="0" y2="1">
      <stop offset="0%" stop-color="#0B1220"/><stop offset="100%" stop-color="#101B31"/>
    </linearGradient>
    <linearGradient id="mcv" x1="0" y1="0" x2="1" y2="0">
      <stop offset="0%" stop-color="#3AA1FF"/><stop offset="45%" stop-color="#3AA1FF"/>
      <stop offset="70%" stop-color="#5FD7C8"/><stop offset="100%" stop-color="#5FD7C8"/>
    </linearGradient>
  </defs>
  <rect x="0" y="0" width="128" height="128" rx="24" fill="url(#mbg)"/>
<g><line x1="40.0" y1="26" x2="40.0" y2="102" stroke="#15213A" stroke-width="1"/><line x1="64.0" y1="26" x2="64.0" y2="102" stroke="#15213A" stroke-width="1"/><line x1="88.0" y1="26" x2="88.0" y2="102" stroke="#15213A" stroke-width="1"/><line x1="16" y1="45.0" x2="112" y2="45.0" stroke="#15213A" stroke-width="1"/><line x1="16" y1="64.0" x2="112" y2="64.0" stroke="#15213A" stroke-width="1"/><line x1="16" y1="83.0" x2="112" y2="83.0" stroke="#15213A" stroke-width="1"/><line x1="71.8" y1="32.0" x2="71.8" y2="102.0" stroke="#5FD7C8" stroke-width="1" stroke-dasharray="2 4" opacity="0.55"/><line x1="79.3" y1="32.0" x2="79.3" y2="102.0" stroke="#5FD7C8" stroke-width="1" stroke-dasharray="2 4" opacity="0.55"/><rect x="16" y="26" width="96" height="76" fill="none" stroke="#1C2A47" stroke-width="1.5"/><path d="M16.0,56.9L16.2,56.8L16.4,56.7L16.6,56.6L16.8,56.5L17.0,56.5L17.2,56.4L17.4,56.3L17.6,56.2L17.8,56.1L18.0,56.0L18.2,55.9L18.4,55.8L18.6,55.7L18.8,55.7L19.0,55.6L19.2,55.5L19.4,55.4L19.6,55.3L19.8,55.2L20.0,55.1L20.2,55.0L20.4,54.9L20.6,54.9L20.8,54.8L21.0,54.7L21.2,54.6L21.4,54.5L21.6,54.4L21.8,54.3L22.0,54.3L22.2,54.2L22.4,54.1L22.6,54.0L22.8,53.9L23.0,53.8L23.2,53.7L23.4,53.7L23.6,53.6L23.8,53.5L24.0,53.4L24.2,53.3L24.4,53.2L24.6,53.1L24.8,53.1L25.0,53.0L25.2,52.9L25.4,52.8L25.6,52.7L25.8,52.6L26.0,52.6L26.2,52.5L26.4,52.4L26.6,52.3L26.8,52.2L27.0,52.2L27.2,52.1L27.4,52.0L27.6,51.9L27.8,51.8L28.0,51.7L28.2,51.7L28.4,51.6L28.6,51.5L28.8,51.4L29.0,51.4L29.2,51.3L29.4,51.2L29.6,51.1L29.8,51.0L30.0,51.0L30.2,50.9L30.4,50.8L30.6,50.7L30.8,50.7L31.0,50.6L31.2,50.5L31.4,50.4L31.6,50.4L31.8,50.3L32.0,50.2L32.2,50.1L32.4,50.1L32.6,50.0L32.8,49.9L33.0,49.9L33.2,49.8L33.4,49.7L33.6,49.6L33.8,49.6L34.0,49.5L34.2,49.4L34.4,49.4L34.6,49.3L34.8,49.2L35.0,49.2L35.2,49.1L35.4,49.0L35.6,49.0L35.8,48.9L36.0,48.9L36.2,48.8L36.4,48.7L36.6,48.7L36.8,48.6L37.0,48.6L37.2,48.5L37.4,48.4L37.6,48.4L37.8,48.3L38.0,48.3L38.2,48.2L38.4,48.2L38.6,48.1L38.8,48.1L39.0,48.0L39.2,48.0L39.4,47.9L39.6,47.9L39.8,47.8L40.1,47.8L40.3,47.8L40.5,47.7L40.7,47.7L40.9,47.6L41.1,47.6L41.3,47.6L41.5,47.5L41.7,47.5L41.9,47.5L42.1,47.4L42.3,47.4L42.5,47.4L42.7,47.4L42.9,47.3L43.1,47.3L43.3,47.3L43.5,47.3L43.7,47.3L43.9,47.3L44.1,47.3L44.3,47.3L44.5,47.2L44.7,47.2L44.9,47.2L45.1,47.3L45.3,47.3L45.5,47.3L45.7,47.3L45.9,47.3L46.1,47.3L46.3,47.3L46.5,47.4L46.7,47.4L46.9,47.4L47.1,47.5L47.3,47.5L47.5,47.6L47.7,47.6L47.9,47.7L48.1,47.7L48.3,47.8L48.5,47.9L48.7,48.0L48.9,48.0L49.1,48.1L49.3,48.2L49.5,48.3L49.7,48.5L49.9,48.6L50.1,48.7L50.3,48.9L50.5,49.0L50.7,49.2L50.9,49.4L51.1,49.6L51.3,49.8L51.5,50.0L51.7,50.2L51.9,50.5L52.1,50.8L52.3,51.1L52.5,51.4L52.7,51.7L52.9,52.1L53.1,52.5L53.3,53.0L53.5,53.5L53.7,54.1L53.9,54.7L54.1,55.3L54.3,56.1L54.5,57.0L54.7,58.0L54.9,59.1L55.1,60.5L55.3,62.1L55.5,64.2L55.7,67.1L55.9,71.4L56.1,80.5L56.3,82.3L56.5,71.7L56.7,67.0L56.9,63.8L57.1,61.5L57.3,59.6L57.5,58.1L57.7,56.7L57.9,55.6L58.1,54.5L58.3,53.6L58.5,52.8L58.7,52.0L58.9,51.3L59.1,50.7L59.3,50.1L59.5,49.6L59.7,49.2L59.9,48.8L60.1,48.4L60.3,48.1L60.5,47.8L60.7,47.6L60.9,47.4L61.1,47.3L61.3,47.3L61.5,47.3L61.7,47.4L61.9,47.6L62.1,47.9L62.3,48.3L62.5,48.9L62.7,49.8L62.9,51.0L63.1,52.8L63.3,55.7L63.5,61.0L63.7,91.6L63.9,60.1L64.1,53.1L64.3,48.8L64.5,45.6L64.7,43.1L64.9,41.0L65.1,39.2L65.3,37.7L65.5,36.5L65.7,35.6L65.9,34.8L66.1,34.2L66.3,33.7L66.5,33.3L66.7,33.0L66.9,32.8L67.1,32.6L67.3,32.5L67.5,32.4L67.7,32.4L67.9,32.3L68.1,32.3L68.3,32.2L68.5,32.2L68.7,32.2L68.9,32.2L69.1,32.2L69.3,32.2L69.5,32.2L69.7,32.2L69.9,32.2L70.1,32.2L70.3,32.2L70.5,32.2L70.7,32.2L70.9,32.2L71.1,32.2L71.3,32.2L71.5,32.2L71.7,32.2L71.9,32.2L72.1,32.2L72.3,32.2L72.5,32.2L72.7,32.2L72.9,32.2L73.1,32.2L73.3,32.2L73.5,32.2L73.7,32.2L73.9,32.2L74.1,32.2L74.3,32.2L74.5,32.2L74.7,32.2L74.9,32.2L75.1,32.2L75.3,32.2L75.5,32.2L75.7,32.2L75.9,32.2L76.1,32.2L76.3,32.2L76.5,32.2L76.7,32.2L76.9,32.2L77.1,32.2L77.3,32.2L77.5,32.2L77.7,32.2L77.9,32.2L78.1,32.2L78.3,32.2L78.5,32.2L78.7,32.2L78.9,32.2L79.1,32.2L79.3,32.2L79.5,32.2L79.7,32.2L79.9,32.2L80.1,32.2L80.3,32.2L80.5,32.2L80.7,32.2L80.9,32.2L81.1,32.2L81.3,32.2L81.5,32.2L81.7,32.2L81.9,32.2L82.1,32.2L82.3,32.2L82.5,32.2L82.7,32.2L82.9,32.2L83.1,32.2L83.3,32.2L83.5,32.2L83.7,32.2L83.9,32.2L84.1,32.2L84.3,32.2L84.5,32.2L84.7,32.2L84.9,32.2L85.1,32.2L85.3,32.2L85.5,32.2L85.7,32.2L85.9,32.2L86.1,32.2L86.3,32.2L86.5,32.2L86.7,32.2L86.9,32.2L87.1,32.2L87.3,32.2L87.5,32.2L87.7,32.2L87.9,32.2L88.2,32.2L88.4,32.2L88.6,32.2L88.8,32.2L89.0,32.2L89.2,32.2L89.4,32.2L89.6,32.2L89.8,32.2L90.0,32.2L90.2,32.2L90.4,32.2L90.6,32.2L90.8,32.2L91.0,32.2L91.2,32.2L91.4,32.2L91.6,32.2L91.8,32.2L92.0,32.2L92.2,32.2L92.4,32.2L92.6,32.2L92.8,32.2L93.0,32.2L93.2,32.2L93.4,32.2L93.6,32.2L93.8,32.2L94.0,32.2L94.2,32.2L94.4,32.2L94.6,32.2L94.8,32.2L95.0,32.2L95.2,32.2L95.4,32.2L95.6,32.2L95.8,32.2L96.0,32.2L96.2,32.2L96.4,32.2L96.6,32.2L96.8,32.2L97.0,32.2L97.2,32.2L97.4,32.2L97.6,32.2L97.8,32.2L98.0,32.2L98.2,32.2L98.4,32.2L98.6,32.2L98.8,32.2L99.0,32.2L99.2,32.2L99.4,32.2L99.6,32.2L99.8,32.2L100.0,32.2L100.2,32.2L100.4,32.2L100.6,32.2L100.8,32.2L101.0,32.2L101.2,32.2L101.4,32.2L101.6,32.2L101.8,32.2L102.0,32.2L102.2,32.2L102.4,32.2L102.6,32.2L102.8,32.2L103.0,32.2L103.2,32.2L103.4,32.2L103.6,32.2L103.8,32.2L104.0,32.2L104.2,32.2L104.4,32.2L104.6,32.2L104.8,32.2L105.0,32.2L105.2,32.2L105.4,32.2L105.6,32.2L105.8,32.2L106.0,32.2L106.2,32.2L106.4,32.2L106.6,32.2L106.8,32.2L107.0,32.2L107.2,32.2L107.4,32.2L107.6,32.2L107.8,32.2L108.0,32.2L108.2,32.2L108.4,32.2L108.6,32.2L108.8,32.2L109.0,32.2L109.2,32.2L109.4,32.2L109.6,32.2L109.8,32.2L110.0,32.2L110.2,32.2L110.4,32.2L110.6,32.2L110.8,32.2L111.0,32.2L111.2,32.2L111.4,32.2L111.6,32.2L111.8,32.2L112.0,32.2" fill="none" stroke="#7286A8" stroke-width="1.6" opacity="0.45"/><path d="M16.0,32.2L16.2,32.2L16.4,32.2L16.6,32.2L16.8,32.2L17.0,32.2L17.2,32.2L17.4,32.2L17.6,32.2L17.8,32.2L18.0,32.2L18.2,32.2L18.4,32.2L18.6,32.2L18.8,32.2L19.0,32.2L19.2,32.2L19.4,32.2L19.6,32.2L19.8,32.2L20.0,32.2L20.2,32.2L20.4,32.2L20.6,32.2L20.8,32.2L21.0,32.2L21.2,32.2L21.4,32.2L21.6,32.2L21.8,32.2L22.0,32.2L22.2,32.2L22.4,32.2L22.6,32.2L22.8,32.2L23.0,32.2L23.2,32.2L23.4,32.2L23.6,32.2L23.8,32.2L24.0,32.2L24.2,32.2L24.4,32.2L24.6,32.2L24.8,32.2L25.0,32.2L25.2,32.2L25.4,32.2L25.6,32.2L25.8,32.2L26.0,32.2L26.2,32.2L26.4,32.2L26.6,32.2L26.8,32.2L27.0,32.2L27.2,32.2L27.4,32.2L27.6,32.2L27.8,32.2L28.0,32.2L28.2,32.2L28.4,32.2L28.6,32.2L28.8,32.2L29.0,32.2L29.2,32.2L29.4,32.2L29.6,32.2L29.8,32.2L30.0,32.2L30.2,32.2L30.4,32.2L30.6,32.2L30.8,32.2L31.0,32.2L31.2,32.2L31.4,32.2L31.6,32.2L31.8,32.2L32.0,32.2L32.2,32.2L32.4,32.2L32.6,32.2L32.8,32.2L33.0,32.2L33.2,32.2L33.4,32.3L33.6,32.3L33.8,32.3L34.0,32.3L34.2,32.3L34.4,32.3L34.6,32.3L34.8,32.3L35.0,32.3L35.2,32.3L35.4,32.3L35.6,32.3L35.8,32.3L36.0,32.3L36.2,32.3L36.4,32.3L36.6,32.3L36.8,32.3L37.0,32.3L37.2,32.3L37.4,32.3L37.6,32.3L37.8,32.3L38.0,32.3L38.2,32.3L38.4,32.3L38.6,32.3L38.8,32.3L39.0,32.3L39.2,32.3L39.4,32.3L39.6,32.3L39.8,32.3L40.1,32.3L40.3,32.3L40.5,32.3L40.7,32.3L40.9,32.3L41.1,32.3L41.3,32.3L41.5,32.3L41.7,32.3L41.9,32.3L42.1,32.3L42.3,32.3L42.5,32.3L42.7,32.3L42.9,32.3L43.1,32.3L43.3,32.3L43.5,32.3L43.7,32.3L43.9,32.3L44.1,32.3L44.3,32.3L44.5,32.3L44.7,32.3L44.9,32.3L45.1,32.3L45.3,32.3L45.5,32.3L45.7,32.3L45.9,32.3L46.1,32.3L46.3,32.3L46.5,32.3L46.7,32.3L46.9,32.3L47.1,32.3L47.3,32.3L47.5,32.3L47.7,32.3L47.9,32.3L48.1,32.3L48.3,32.3L48.5,32.3L48.7,32.3L48.9,32.3L49.1,32.3L49.3,32.3L49.5,32.3L49.7,32.3L49.9,32.3L50.1,32.3L50.3,32.3L50.5,32.3L50.7,32.3L50.9,32.3L51.1,32.3L51.3,32.2L51.5,32.2L51.7,32.2L51.9,32.2L52.1,32.2L52.3,32.2L52.5,32.2L52.7,32.2L52.9,32.2L53.1,32.2L53.3,32.2L53.5,32.2L53.7,32.2L53.9,32.2L54.1,32.2L54.3,32.2L54.5,32.2L54.7,32.2L54.9,32.2L55.1,32.2L55.3,32.2L55.5,32.2L55.7,32.2L55.9,32.2L56.1,32.2L56.3,32.2L56.5,32.2L56.7,32.2L56.9,32.2L57.1,32.2L57.3,32.2L57.5,32.2L57.7,32.2L57.9,32.2L58.1,32.2L58.3,32.2L58.5,32.2L58.7,32.2L58.9,32.2L59.1,32.2L59.3,32.2L59.5,32.3L59.7,32.3L59.9,32.3L60.1,32.3L60.3,32.3L60.5,32.3L60.7,32.3L60.9,32.3L61.1,32.3L61.3,32.3L61.5,32.3L61.7,32.3L61.9,32.3L62.1,32.3L62.3,32.3L62.5,32.3L62.7,32.2L62.9,32.2L63.1,32.2L63.3,32.2L63.5,32.2L63.7,32.2L63.9,32.2L64.1,32.2L64.3,32.3L64.5,32.4L64.7,32.6L64.9,32.8L65.1,33.2L65.3,33.7L65.5,34.3L65.7,35.0L65.9,35.8L66.1,36.7L66.3,37.7L66.5,38.8L66.7,39.9L66.9,41.1L67.1,42.3L67.3,43.6L67.5,44.8L67.7,46.1L67.9,47.3L68.1,48.6L68.3,50.0L68.5,51.3L68.7,52.7L68.9,54.0L69.1,55.5L69.3,56.9L69.5,58.4L69.7,60.0L69.9,61.6L70.1,63.4L70.3,65.2L70.5,67.2L70.7,69.4L70.9,71.9L71.1,74.8L71.3,78.5L71.5,83.6L71.7,93.4L71.9,96.4L72.1,86.5L72.3,82.5L72.5,80.2L72.7,78.6L72.9,77.5L73.1,76.7L73.3,76.2L73.5,75.8L73.7,75.5L73.9,75.4L74.1,75.3L74.3,75.3L74.5,75.4L74.7,75.5L74.9,75.7L75.1,76.0L75.3,76.3L75.5,76.6L75.7,77.0L75.9,77.5L76.1,78.0L76.3,78.5L76.5,79.1L76.7,79.7L76.9,80.5L77.1,81.2L77.3,82.1L77.5,83.1L77.7,84.2L77.9,85.4L78.1,86.8L78.3,88.5L78.5,90.6L78.7,93.2L78.9,96.8L79.1,102.0L79.3,102.0L79.5,102.0L79.7,97.6L79.9,94.0L80.1,91.5L80.3,89.6L80.5,88.1L80.7,86.8L80.9,85.7L81.1,84.8L81.3,84.0L81.5,83.2L81.7,82.6L81.9,82.0L82.1,81.5L82.3,81.0L82.5,80.5L82.7,80.1L82.9,79.8L83.1,79.4L83.3,79.1L83.5,78.8L83.7,78.5L83.9,78.3L84.1,78.0L84.3,77.8L84.5,77.6L84.7,77.4L84.9,77.2L85.1,77.1L85.3,76.9L85.5,76.8L85.7,76.6L85.9,76.5L86.1,76.4L86.3,76.3L86.5,76.2L86.7,76.1L86.9,76.0L87.1,75.9L87.3,75.8L87.5,75.8L87.7,75.7L87.9,75.6L88.2,75.6L88.4,75.6L88.6,75.5L88.8,75.5L89.0,75.4L89.2,75.4L89.4,75.4L89.6,75.4L89.8,75.3L90.0,75.3L90.2,75.3L90.4,75.3L90.6,75.3L90.8,75.3L91.0,75.3L91.2,75.3L91.4,75.3L91.6,75.3L91.8,75.3L92.0,75.3L92.2,75.4L92.4,75.4L92.6,75.4L92.8,75.4L93.0,75.4L93.2,75.5L93.4,75.5L93.6,75.5L93.8,75.5L94.0,75.6L94.2,75.6L94.4,75.6L94.6,75.7L94.8,75.7L95.0,75.8L95.2,75.8L95.4,75.8L95.6,75.9L95.8,75.9L96.0,76.0L96.2,76.0L96.4,76.1L96.6,76.1L96.8,76.2L97.0,76.2L97.2,76.3L97.4,76.3L97.6,76.4L97.8,76.4L98.0,76.5L98.2,76.6L98.4,76.6L98.6,76.7L98.8,76.7L99.0,76.8L99.2,76.9L99.4,76.9L99.6,77.0L99.8,77.0L100.0,77.1L100.2,77.2L100.4,77.2L100.6,77.3L100.8,77.4L101.0,77.4L101.2,77.5L101.4,77.6L101.6,77.6L101.8,77.7L102.0,77.8L102.2,77.9L102.4,77.9L102.6,78.0L102.8,78.1L103.0,78.1L103.2,78.2L103.4,78.3L103.6,78.4L103.8,78.4L104.0,78.5L104.2,78.6L104.4,78.7L104.6,78.7L104.8,78.8L105.0,78.9L105.2,79.0L105.4,79.1L105.6,79.1L105.8,79.2L106.0,79.3L106.2,79.4L106.4,79.4L106.6,79.5L106.8,79.6L107.0,79.7L107.2,79.8L107.4,79.8L107.6,79.9L107.8,80.0L108.0,80.1L108.2,80.2L108.4,80.3L108.6,80.3L108.8,80.4L109.0,80.5L109.2,80.6L109.4,80.7L109.6,80.8L109.8,80.8L110.0,80.9L110.2,81.0L110.4,81.1L110.6,81.2L110.8,81.3L111.0,81.3L111.2,81.4L111.4,81.5L111.6,81.6L111.8,81.7L112.0,81.8" fill="none" stroke="url(#mcv)" stroke-width="3" stroke-linejoin="round" stroke-linecap="round"/></g>
</svg>
