<?xml version="1.0" encoding="UTF-8"?>
<svg xmlns="http://www.w3.org/2000/svg" viewBox="0 0 480 240" role="img"
     aria-label="mcp-ltspice-qucs: a real elliptic low-pass response drawn by the toolkit itself">
  <title>mcp-ltspice-qucs</title>
  <defs>
    <linearGradient id="cbg" x1="0" y1="0" x2="0" y2="1">
      <stop offset="0%" stop-color="#0B1220"/><stop offset="100%" stop-color="#101B31"/>
    </linearGradient>
    <linearGradient id="ccv" x1="0" y1="0" x2="1" y2="0">
      <stop offset="0%" stop-color="#3AA1FF"/><stop offset="45%" stop-color="#3AA1FF"/>
      <stop offset="70%" stop-color="#5FD7C8"/><stop offset="100%" stop-color="#5FD7C8"/>
    </linearGradient>
  </defs>
  <rect x="0" y="0" width="480" height="240" rx="20" fill="url(#cbg)"/>
<g><line x1="106.7" y1="36" x2="106.7" y2="166" stroke="#15213A" stroke-width="1"/><line x1="173.3" y1="36" x2="173.3" y2="166" stroke="#15213A" stroke-width="1"/><line x1="240.0" y1="36" x2="240.0" y2="166" stroke="#15213A" stroke-width="1"/><line x1="306.7" y1="36" x2="306.7" y2="166" stroke="#15213A" stroke-width="1"/><line x1="373.3" y1="36" x2="373.3" y2="166" stroke="#15213A" stroke-width="1"/><line x1="40" y1="68.5" x2="440" y2="68.5" stroke="#15213A" stroke-width="1"/><line x1="40" y1="101.0" x2="440" y2="101.0" stroke="#15213A" stroke-width="1"/><line x1="40" y1="133.5" x2="440" y2="133.5" stroke="#15213A" stroke-width="1"/><line x1="272.6" y1="42.0" x2="272.6" y2="166.0" stroke="#5FD7C8" stroke-width="1" stroke-dasharray="2 4" opacity="0.55"/><line x1="303.9" y1="42.0" x2="303.9" y2="166.0" stroke="#5FD7C8" stroke-width="1" stroke-dasharray="2 4" opacity="0.55"/><rect x="40" y="36" width="400" height="130" fill="none" stroke="#1C2A47" stroke-width="1.5"/><path d="M40.0,88.9L40.8,88.7L41.7,88.5L42.5,88.4L43.3,88.2L44.2,88.1L45.0,87.9L45.8,87.8L46.7,87.6L47.5,87.5L48.4,87.3L49.2,87.2L50.0,87.0L50.9,86.9L51.7,86.7L52.5,86.6L53.4,86.4L54.2,86.3L55.0,86.1L55.9,86.0L56.7,85.8L57.5,85.7L58.4,85.5L59.2,85.4L60.0,85.2L60.9,85.1L61.7,84.9L62.5,84.8L63.4,84.6L64.2,84.5L65.1,84.3L65.9,84.2L66.7,84.0L67.6,83.9L68.4,83.7L69.2,83.6L70.1,83.4L70.9,83.3L71.7,83.2L72.6,83.0L73.4,82.9L74.2,82.7L75.1,82.6L75.9,82.4L76.7,82.3L77.6,82.1L78.4,82.0L79.2,81.9L80.1,81.7L80.9,81.6L81.8,81.4L82.6,81.3L83.4,81.2L84.3,81.0L85.1,80.9L85.9,80.7L86.8,80.6L87.6,80.5L88.4,80.3L89.3,80.2L90.1,80.0L90.9,79.9L91.8,79.8L92.6,79.6L93.4,79.5L94.3,79.4L95.1,79.2L95.9,79.1L96.8,79.0L97.6,78.8L98.5,78.7L99.3,78.6L100.1,78.4L101.0,78.3L101.8,78.2L102.6,78.0L103.5,77.9L104.3,77.8L105.1,77.7L106.0,77.5L106.8,77.4L107.6,77.3L108.5,77.2L109.3,77.0L110.1,76.9L111.0,76.8L111.8,76.7L112.7,76.6L113.5,76.4L114.3,76.3L115.2,76.2L116.0,76.1L116.8,76.0L117.7,75.9L118.5,75.8L119.3,75.6L120.2,75.5L121.0,75.4L121.8,75.3L122.7,75.2L123.5,75.1L124.3,75.0L125.2,74.9L126.0,74.8L126.8,74.7L127.7,74.6L128.5,74.5L129.4,74.4L130.2,74.3L131.0,74.2L131.9,74.1L132.7,74.0L133.5,73.9L134.4,73.8L135.2,73.8L136.0,73.7L136.9,73.6L137.7,73.5L138.5,73.4L139.4,73.4L140.2,73.3L141.0,73.2L141.9,73.2L142.7,73.1L143.5,73.0L144.4,73.0L145.2,72.9L146.1,72.8L146.9,72.8L147.7,72.7L148.6,72.7L149.4,72.6L150.2,72.6L151.1,72.6L151.9,72.5L152.7,72.5L153.6,72.5L154.4,72.4L155.2,72.4L156.1,72.4L156.9,72.4L157.7,72.4L158.6,72.3L159.4,72.3L160.3,72.3L161.1,72.4L161.9,72.4L162.8,72.4L163.6,72.4L164.4,72.4L165.3,72.5L166.1,72.5L166.9,72.5L167.8,72.6L168.6,72.7L169.4,72.7L170.3,72.8L171.1,72.9L171.9,73.0L172.8,73.1L173.6,73.2L174.4,73.3L175.3,73.4L176.1,73.5L177.0,73.7L177.8,73.9L178.6,74.0L179.5,74.2L180.3,74.4L181.1,74.6L182.0,74.9L182.8,75.1L183.6,75.4L184.5,75.7L185.3,76.0L186.1,76.3L187.0,76.7L187.8,77.0L188.6,77.4L189.5,77.9L190.3,78.4L191.1,78.9L192.0,79.4L192.8,80.0L193.7,80.7L194.5,81.4L195.3,82.2L196.2,83.0L197.0,84.0L197.8,85.0L198.7,86.2L199.5,87.5L200.3,89.0L201.2,90.7L202.0,92.6L202.8,94.9L203.7,97.8L204.5,101.4L205.3,106.2L206.2,113.6L207.0,129.2L207.8,132.4L208.7,114.3L209.5,106.1L210.4,100.7L211.2,96.7L212.0,93.5L212.9,90.8L213.7,88.5L214.5,86.5L215.4,84.8L216.2,83.2L217.0,81.8L217.9,80.5L218.7,79.3L219.5,78.3L220.4,77.3L221.2,76.4L222.0,75.6L222.9,74.9L223.7,74.3L224.6,73.8L225.4,73.3L226.2,72.9L227.1,72.6L227.9,72.4L228.7,72.4L229.6,72.4L230.4,72.5L231.2,72.9L232.1,73.4L232.9,74.1L233.7,75.2L234.6,76.7L235.4,78.8L236.2,81.9L237.1,86.8L237.9,95.9L238.7,148.2L239.6,94.4L240.4,82.4L241.3,75.0L242.1,69.5L242.9,65.2L243.8,61.6L244.6,58.6L245.4,56.1L246.3,54.0L247.1,52.3L247.9,51.0L248.8,49.9L249.6,49.1L250.4,48.5L251.3,48.0L252.1,47.6L252.9,47.4L253.8,47.2L254.6,47.0L255.4,46.9L256.3,46.8L257.1,46.7L258.0,46.7L258.8,46.6L259.6,46.6L260.5,46.6L261.3,46.6L262.1,46.6L263.0,46.6L263.8,46.6L264.6,46.6L265.5,46.5L266.3,46.5L267.1,46.5L268.0,46.5L268.8,46.5L269.6,46.5L270.5,46.5L271.3,46.5L272.2,46.5L273.0,46.5L273.8,46.5L274.7,46.5L275.5,46.5L276.3,46.5L277.2,46.5L278.0,46.5L278.8,46.5L279.7,46.5L280.5,46.5L281.3,46.5L282.2,46.5L283.0,46.5L283.8,46.5L284.7,46.5L285.5,46.5L286.3,46.5L287.2,46.5L288.0,46.5L288.9,46.5L289.7,46.5L290.5,46.5L291.4,46.5L292.2,46.5L293.0,46.5L293.9,46.5L294.7,46.5L295.5,46.5L296.4,46.5L297.2,46.5L298.0,46.5L298.9,46.5L299.7,46.5L300.5,46.5L301.4,46.5L302.2,46.5L303.0,46.5L303.9,46.5L304.7,46.5L305.6,46.5L306.4,46.5L307.2,46.5L308.1,46.5L308.9,46.5L309.7,46.5L310.6,46.5L311.4,46.5L312.2,46.5L313.1,46.5L313.9,46.5L314.7,46.5L315.6,46.5L316.4,46.5L317.2,46.5L318.1,46.5L318.9,46.5L319.7,46.5L320.6,46.5L321.4,46.5L322.3,46.5L323.1,46.5L323.9,46.5L324.8,46.5L325.6,46.5L326.4,46.5L327.3,46.5L328.1,46.5L328.9,46.5L329.8,46.5L330.6,46.5L331.4,46.5L332.3,46.5L333.1,46.5L333.9,46.5L334.8,46.5L335.6,46.5L336.5,46.5L337.3,46.5L338.1,46.5L339.0,46.5L339.8,46.5L340.6,46.5L341.5,46.5L342.3,46.5L343.1,46.5L344.0,46.5L344.8,46.5L345.6,46.5L346.5,46.5L347.3,46.5L348.1,46.5L349.0,46.5L349.8,46.5L350.6,46.5L351.5,46.5L352.3,46.5L353.2,46.5L354.0,46.5L354.8,46.5L355.7,46.5L356.5,46.5L357.3,46.5L358.2,46.5L359.0,46.5L359.8,46.5L360.7,46.5L361.5,46.5L362.3,46.5L363.2,46.5L364.0,46.5L364.8,46.5L365.7,46.5L366.5,46.5L367.3,46.5L368.2,46.5L369.0,46.5L369.9,46.5L370.7,46.5L371.5,46.5L372.4,46.5L373.2,46.5L374.0,46.5L374.9,46.5L375.7,46.5L376.5,46.5L377.4,46.5L378.2,46.5L379.0,46.5L379.9,46.5L380.7,46.5L381.5,46.5L382.4,46.5L383.2,46.5L384.1,46.5L384.9,46.5L385.7,46.5L386.6,46.5L387.4,46.5L388.2,46.5L389.1,46.5L389.9,46.5L390.7,46.5L391.6,46.5L392.4,46.5L393.2,46.5L394.1,46.5L394.9,46.5L395.7,46.5L396.6,46.5L397.4,46.5L398.2,46.5L399.1,46.5L399.9,46.5L400.8,46.5L401.6,46.5L402.4,46.5L403.3,46.5L404.1,46.5L404.9,46.5L405.8,46.5L406.6,46.5L407.4,46.5L408.3,46.5L409.1,46.5L409.9,46.5L410.8,46.5L411.6,46.5L412.4,46.5L413.3,46.5L414.1,46.5L414.9,46.5L415.8,46.5L416.6,46.5L417.5,46.5L418.3,46.5L419.1,46.5L420.0,46.5L420.8,46.5L421.6,46.5L422.5,46.5L423.3,46.5L424.1,46.5L425.0,46.5L425.8,46.5L426.6,46.5L427.5,46.5L428.3,46.5L429.1,46.5L430.0,46.5L430.8,46.5L431.6,46.5L432.5,46.5L433.3,46.5L434.2,46.5L435.0,46.5L435.8,46.5L436.7,46.5L437.5,46.5L438.3,46.5L439.2,46.5L440.0,46.5" fill="none" stroke="#7286A8" stroke-width="1.6" opacity="0.45"/><path d="M40.0,46.6L40.8,46.6L41.7,46.6L42.5,46.6L43.3,46.6L44.2,46.6L45.0,46.6L45.8,46.6L46.7,46.6L47.5,46.6L48.4,46.6L49.2,46.6L50.0,46.6L50.9,46.6L51.7,46.6L52.5,46.6L53.4,46.6L54.2,46.6L55.0,46.6L55.9,46.6L56.7,46.6L57.5,46.6L58.4,46.6L59.2,46.6L60.0,46.6L60.9,46.6L61.7,46.6L62.5,46.6L63.4,46.6L64.2,46.6L65.1,46.6L65.9,46.6L66.7,46.6L67.6,46.6L68.4,46.6L69.2,46.6L70.1,46.6L70.9,46.6L71.7,46.6L72.6,46.6L73.4,46.6L74.2,46.6L75.1,46.6L75.9,46.6L76.7,46.6L77.6,46.6L78.4,46.6L79.2,46.6L80.1,46.6L80.9,46.6L81.8,46.6L82.6,46.6L83.4,46.6L84.3,46.6L85.1,46.6L85.9,46.6L86.8,46.6L87.6,46.6L88.4,46.6L89.3,46.6L90.1,46.6L90.9,46.6L91.8,46.6L92.6,46.6L93.4,46.6L94.3,46.6L95.1,46.6L95.9,46.6L96.8,46.7L97.6,46.7L98.5,46.7L99.3,46.7L100.1,46.7L101.0,46.7L101.8,46.7L102.6,46.7L103.5,46.7L104.3,46.7L105.1,46.7L106.0,46.7L106.8,46.7L107.6,46.7L108.5,46.7L109.3,46.7L110.1,46.7L111.0,46.7L111.8,46.7L112.7,46.7L113.5,46.7L114.3,46.7L115.2,46.7L116.0,46.7L116.8,46.7L117.7,46.7L118.5,46.7L119.3,46.7L120.2,46.7L121.0,46.7L121.8,46.7L122.7,46.7L123.5,46.7L124.3,46.7L125.2,46.7L126.0,46.7L126.8,46.7L127.7,46.7L128.5,46.7L129.4,46.7L130.2,46.7L131.0,46.7L131.9,46.7L132.7,46.8L133.5,46.8L134.4,46.8L135.2,46.8L136.0,46.8L136.9,46.8L137.7,46.8L138.5,46.8L139.4,46.8L140.2,46.8L141.0,46.8L141.9,46.8L142.7,46.8L143.5,46.8L144.4,46.8L145.2,46.8L146.1,46.8L146.9,46.8L147.7,46.8L148.6,46.8L149.4,46.8L150.2,46.8L151.1,46.8L151.9,46.8L152.7,46.8L153.6,46.8L154.4,46.8L155.2,46.8L156.1,46.8L156.9,46.8L157.7,46.8L158.6,46.8L159.4,46.8L160.3,46.8L161.1,46.8L161.9,46.8L162.8,46.8L163.6,46.8L164.4,46.8L165.3,46.8L166.1,46.8L166.9,46.8L167.8,46.8L168.6,46.8L169.4,46.8L170.3,46.8L171.1,46.8L171.9,46.8L172.8,46.8L173.6,46.8L174.4,46.8L175.3,46.8L176.1,46.8L177.0,46.8L177.8,46.8L178.6,46.8L179.5,46.7L180.3,46.7L181.1,46.7L182.0,46.7L182.8,46.7L183.6,46.7L184.5,46.7L185.3,46.7L186.1,46.7L187.0,46.7L187.8,46.7L188.6,46.7L189.5,46.7L190.3,46.7L191.1,46.7L192.0,46.6L192.8,46.6L193.7,46.6L194.5,46.6L195.3,46.6L196.2,46.6L197.0,46.6L197.8,46.6L198.7,46.6L199.5,46.6L200.3,46.6L201.2,46.6L202.0,46.6L202.8,46.6L203.7,46.5L204.5,46.5L205.3,46.5L206.2,46.5L207.0,46.5L207.8,46.5L208.7,46.5L209.5,46.5L210.4,46.5L211.2,46.6L212.0,46.6L212.9,46.6L213.7,46.6L214.5,46.6L215.4,46.6L216.2,46.6L217.0,46.6L217.9,46.6L218.7,46.6L219.5,46.7L220.4,46.7L221.2,46.7L222.0,46.7L222.9,46.7L223.7,46.7L224.6,46.8L225.4,46.8L226.2,46.8L227.1,46.8L227.9,46.8L228.7,46.8L229.6,46.8L230.4,46.8L231.2,46.8L232.1,46.8L232.9,46.7L233.7,46.7L234.6,46.7L235.4,46.7L236.2,46.6L237.1,46.6L237.9,46.6L238.7,46.5L239.6,46.6L240.4,46.6L241.3,46.7L242.1,46.9L242.9,47.2L243.8,47.7L244.6,48.3L245.4,49.1L246.3,50.1L247.1,51.3L247.9,52.8L248.8,54.3L249.6,56.1L250.4,57.9L251.3,59.9L252.1,61.9L252.9,63.9L253.8,66.0L254.6,68.2L255.4,70.3L256.3,72.5L257.1,74.7L258.0,77.0L258.8,79.3L259.6,81.6L260.5,84.0L261.3,86.4L262.1,88.9L263.0,91.5L263.8,94.1L264.6,96.9L265.5,99.9L266.3,103.1L267.1,106.5L268.0,110.3L268.8,114.5L269.6,119.5L270.5,125.8L271.3,134.6L272.2,151.3L273.0,156.5L273.8,139.5L274.7,132.7L275.5,128.7L276.3,126.0L277.2,124.1L278.0,122.8L278.8,121.8L279.7,121.2L280.5,120.7L281.3,120.4L282.2,120.3L283.0,120.4L283.8,120.5L284.7,120.7L285.5,121.1L286.3,121.5L287.2,122.0L288.0,122.6L288.9,123.3L289.7,124.0L290.5,124.9L291.4,125.8L292.2,126.8L293.0,127.9L293.9,129.1L294.7,130.5L295.5,132.0L296.4,133.7L297.2,135.5L298.0,137.6L298.9,140.1L299.7,142.9L300.5,146.4L301.4,150.9L302.2,157.1L303.0,166.0L303.9,166.0L304.7,166.0L305.6,158.5L306.4,152.3L307.2,148.1L308.1,144.8L308.9,142.2L309.7,140.0L310.6,138.2L311.4,136.6L312.2,135.2L313.1,133.9L313.9,132.8L314.7,131.8L315.6,130.9L316.4,130.0L317.2,129.3L318.1,128.6L318.9,127.9L319.7,127.4L320.6,126.8L321.4,126.3L322.3,125.8L323.1,125.4L323.9,125.0L324.8,124.6L325.6,124.3L326.4,123.9L327.3,123.6L328.1,123.3L328.9,123.1L329.8,122.8L330.6,122.6L331.4,122.4L332.3,122.2L333.1,122.0L333.9,121.8L334.8,121.7L335.6,121.5L336.5,121.4L337.3,121.2L338.1,121.1L339.0,121.0L339.8,120.9L340.6,120.8L341.5,120.8L342.3,120.7L343.1,120.6L344.0,120.6L344.8,120.5L345.6,120.5L346.5,120.4L347.3,120.4L348.1,120.4L349.0,120.4L349.8,120.3L350.6,120.3L351.5,120.3L352.3,120.3L353.2,120.3L354.0,120.3L354.8,120.4L355.7,120.4L356.5,120.4L357.3,120.4L358.2,120.4L359.0,120.5L359.8,120.5L360.7,120.6L361.5,120.6L362.3,120.6L363.2,120.7L364.0,120.7L364.8,120.8L365.7,120.9L366.5,120.9L367.3,121.0L368.2,121.0L369.0,121.1L369.9,121.2L370.7,121.3L371.5,121.3L372.4,121.4L373.2,121.5L374.0,121.6L374.9,121.7L375.7,121.7L376.5,121.8L377.4,121.9L378.2,122.0L379.0,122.1L379.9,122.2L380.7,122.3L381.5,122.4L382.4,122.5L383.2,122.6L384.1,122.7L384.9,122.8L385.7,122.9L386.6,123.0L387.4,123.1L388.2,123.2L389.1,123.3L389.9,123.4L390.7,123.5L391.6,123.6L392.4,123.8L393.2,123.9L394.1,124.0L394.9,124.1L395.7,124.2L396.6,124.3L397.4,124.5L398.2,124.6L399.1,124.7L399.9,124.8L400.8,124.9L401.6,125.1L402.4,125.2L403.3,125.3L404.1,125.4L404.9,125.6L405.8,125.7L406.6,125.8L407.4,126.0L408.3,126.1L409.1,126.2L409.9,126.4L410.8,126.5L411.6,126.6L412.4,126.7L413.3,126.9L414.1,127.0L414.9,127.2L415.8,127.3L416.6,127.4L417.5,127.6L418.3,127.7L419.1,127.8L420.0,128.0L420.8,128.1L421.6,128.2L422.5,128.4L423.3,128.5L424.1,128.7L425.0,128.8L425.8,128.9L426.6,129.1L427.5,129.2L428.3,129.4L429.1,129.5L430.0,129.7L430.8,129.8L431.6,129.9L432.5,130.1L433.3,130.2L434.2,130.4L435.0,130.5L435.8,130.7L436.7,130.8L437.5,131.0L438.3,131.1L439.2,131.3L440.0,131.4" fill="none" stroke="url(#ccv)" stroke-width="3" stroke-linejoin="round" stroke-linecap="round"/></g>
  <text x="40" y="200" font-family="ui-monospace,'SF Mono','Cascadia Code',Menlo,Consolas,monospace" font-size="21" font-weight="600"
        fill="#E8EDF6" letter-spacing="0.5">mcp-ltspice-qucs</text>
  <text x="40" y="221" font-family="ui-monospace,'SF Mono','Cascadia Code',Menlo,Consolas,monospace" font-size="11.5" fill="#8FA1BE">order-5 elliptic |S21| — drawn by its own tools</text>
</svg>
